<svg width="52" height="84" viewBox="0 0 52 84" fill="none" xmlns="http://www.w3.org/2000/svg">
<rect width="52" height="84" fill="#042947"/>
<path fill-rule="evenodd" clip-rule="evenodd" d="M31.4736 42C42.81 42 51.9999 32.598 51.9999 21L51.9999 42H31.4736ZM31.4736 0H51.9999L51.9999 21C51.9999 9.40202 42.81 0 31.4736 0Z" fill="white"/>
<path fill-rule="evenodd" clip-rule="evenodd" d="M27.3684 42H52L52 63L52 84H27.3684C40.9721 84 52 74.598 52 63C52 51.402 40.9721 42 27.3684 42Z" fill="white"/>
<ellipse cx="30.1056" cy="21" rx="10.9474" ry="10.5" fill="white"/>
<ellipse cx="30.1056" cy="63" rx="10.9474" ry="10.5" fill="white"/>
<path d="M2.7378 22C2.6658 22 2.6058 21.976 2.5578 21.928C2.5098 21.872 2.4858 21.812 2.4858 21.748C2.4858 21.708 2.4898 21.672 2.4978 21.64L5.3538 13.924C5.3778 13.836 5.4258 13.76 5.4978 13.696C5.5698 13.632 5.6698 13.6 5.7978 13.6H7.3338C7.4618 13.6 7.5618 13.632 7.6338 13.696C7.7058 13.76 7.7538 13.836 7.7778 13.924L10.6338 21.64C10.6418 21.672 10.6458 21.708 10.6458 21.748C10.6458 21.812 10.6218 21.872 10.5738 21.928C10.5258 21.976 10.4658 22 10.3938 22H9.1458C9.0258 22 8.9378 21.972 8.8818 21.916C8.8258 21.86 8.7898 21.808 8.7738 21.76L8.2578 20.416H4.8738L4.3578 21.76C4.3418 21.808 4.3058 21.86 4.2498 21.916C4.1938 21.972 4.1058 22 3.9858 22H2.7378ZM5.3178 18.868H7.8018L6.5658 15.412L5.3178 18.868Z" fill="white"/>
<path d="M3.5298 38C3.4418 38 3.3698 37.972 3.3138 37.916C3.2578 37.86 3.2298 37.788 3.2298 37.7L3.2298 29.9C3.2298 29.812 3.2578 29.74 3.3138 29.684C3.3698 29.628 3.4418 29.6 3.5298 29.6H4.6218C4.7418 29.6 4.8298 29.628 4.8858 29.684C4.9418 29.74 4.9778 29.784 4.9938 29.816L8.1978 34.82L8.1978 29.9C8.1978 29.812 8.2258 29.74 8.2818 29.684C8.3378 29.628 8.4058 29.6 8.4858 29.6H9.7098C9.7978 29.6 9.8698 29.628 9.9258 29.684C9.9818 29.74 10.0098 29.812 10.0098 29.9L10.0098 37.7C10.0098 37.78 9.9818 37.852 9.9258 37.916C9.8698 37.972 9.7978 38 9.7098 38H8.6058C8.4858 38 8.3978 37.972 8.3418 37.916C8.2938 37.852 8.2578 37.808 8.2338 37.784L5.0418 32.936L5.0418 37.7C5.0418 37.788 5.0138 37.86 4.9578 37.916C4.9018 37.972 4.8298 38 4.7418 38H3.5298Z" fill="white"/>
<path d="M6.0298 54C5.9418 54 5.8698 53.972 5.8138 53.916C5.7578 53.86 5.7298 53.788 5.7298 53.7L5.7298 45.9C5.7298 45.812 5.7578 45.74 5.8138 45.684C5.8698 45.628 5.9418 45.6 6.0298 45.6H7.3858C7.4738 45.6 7.5458 45.628 7.6018 45.684C7.6578 45.74 7.6858 45.812 7.6858 45.9L7.6858 53.7C7.6858 53.788 7.6578 53.86 7.6018 53.916C7.5458 53.972 7.4738 54 7.3858 54H6.0298Z" fill="white"/>
<path d="M3.0298 70C2.9498 70 2.8778 69.972 2.8138 69.916C2.7578 69.86 2.7298 69.788 2.7298 69.7L2.7298 61.9C2.7298 61.812 2.7578 61.74 2.8138 61.684C2.8778 61.628 2.9498 61.6 3.0298 61.6H4.1458C4.2658 61.6 4.3538 61.632 4.4098 61.696C4.4738 61.76 4.5178 61.808 4.5418 61.84L6.7498 65.908L8.9818 61.84C8.9978 61.808 9.0338 61.76 9.0898 61.696C9.1538 61.632 9.2458 61.6 9.3658 61.6H10.4818C10.5698 61.6 10.6418 61.628 10.6978 61.684C10.7538 61.74 10.7818 61.812 10.7818 61.9L10.7818 69.7C10.7818 69.788 10.7538 69.86 10.6978 69.916C10.6418 69.972 10.5698 70 10.4818 70H9.2578C9.1778 70 9.1098 69.972 9.0538 69.916C8.9978 69.86 8.9698 69.788 8.9698 69.7L8.9698 64.852L7.4458 67.708C7.4058 67.78 7.3538 67.844 7.2898 67.9C7.2258 67.956 7.1418 67.984 7.0378 67.984H6.4738C6.3698 67.984 6.2858 67.956 6.2218 67.9C6.1578 67.844 6.1058 67.78 6.0658 67.708L4.5418 64.852L4.5418 69.7C4.5418 69.788 4.5138 69.86 4.4578 69.916C4.4018 69.972 4.3338 70 4.2538 70H3.0298Z" fill="white"/>
</svg>
