<svg width="225" height="200" viewBox="0 0 225 200" fill="none" xmlns="http://www.w3.org/2000/svg">
<path fill-rule="evenodd" clip-rule="evenodd" d="M5.28835 1.16039C4.95416 1.66677 5.14976 2.08109 5.72182 2.08109C6.29387 2.08109 6.76272 1.66677 6.76272 1.16039C6.76272 0.654001 6.5681 0.239685 6.32925 0.239685C6.09041 0.239685 5.62254 0.654001 5.28835 1.16039ZM3.10628 7.54362C3.02764 8.52324 3.54269 9.77448 4.25137 10.3251C5.23625 11.0911 5.67463 10.8425 6.11399 9.26901C6.44032 8.10248 6.17297 6.90373 5.49673 6.50139C3.68325 5.4214 3.26256 5.60462 3.10628 7.54362ZM5.596 20.2033C6.30469 20.4694 7.15293 20.4362 7.47926 20.1305C7.80559 19.8249 7.22567 19.6076 6.18968 19.6472C5.04459 19.6914 4.81164 19.9096 5.596 20.2033ZM5.61762 25.7183C3.13085 26.3352 2.49982 28.7815 4.82736 28.7815C7.12345 28.7815 7.32987 29.9572 5.30899 31.5279C4.22975 32.3667 4.1118 33.1069 4.85193 34.4024C5.59109 35.6959 5.5213 36.1471 4.58065 36.1471C3.88278 36.1471 2.81632 37.6303 2.21085 39.4423C1.3046 42.1556 1.36357 42.8286 2.54602 43.254C3.6056 43.6352 3.81496 44.6019 3.34317 46.9543C2.97261 48.8067 3.08269 49.9208 3.60658 49.617C4.10197 49.3306 5.34634 49.6906 6.3725 50.418C9.31731 52.5061 9.60531 52.1342 9.51783 46.3531C9.45492 42.162 9.12761 41.0185 8.09948 41.3877C7.33281 41.663 6.76272 41.2699 6.76272 40.4652C6.76272 39.6936 7.22174 38.9193 7.78299 38.7444C8.34423 38.5685 9.07257 35.4271 9.39988 31.7618C10.024 24.7865 9.93655 24.6466 5.61762 25.7183ZM3.51321 53.3081C2.46542 54.2905 3.80513 55.4818 5.95771 55.4818C7.64931 55.4818 7.78299 55.2526 6.76272 54.1008C5.44168 52.6092 4.503 52.3809 3.51321 53.3081ZM4.61604 59.0744C3.81693 59.9482 3.0994 62.249 3.02175 64.188C2.9441 66.1261 2.67674 67.903 2.42708 68.136C2.17742 68.3698 2.43692 69.6579 3.00406 70.9984C4.2327 73.9051 4.73103 84.0945 3.61248 83.4463C3.18294 83.1978 2.83106 83.8128 2.83106 84.8136C2.83106 85.8135 3.25666 86.7701 3.77564 86.9395C4.37227 87.1328 4.34377 88.6327 3.69701 91.0108C2.88315 94.0013 2.99128 95.491 4.22582 98.2586C5.08095 100.175 5.77981 102.74 5.77981 103.961C5.77981 105.18 6.44327 106.417 7.25418 106.708C8.88582 107.294 9.30552 110.724 7.74564 110.724C5.09373 110.724 7.78692 120.051 11.2065 122.709C12.8234 123.966 13.2224 125.889 11.6802 124.997C11.0413 124.627 11.0119 125.168 11.5967 126.554C12.9177 129.687 15.8576 135.054 16.5417 135.583C16.87 135.836 17.9453 137.76 18.9322 139.856C20.6631 143.537 28.0015 150.99 29.4779 150.568C29.875 150.455 31.6078 151.594 33.3289 153.1C35.05 154.607 36.8242 155.838 37.2714 155.838C37.7196 155.838 38.2258 156.975 38.3968 158.362C38.6032 160.043 39.364 160.987 40.6733 161.187C42.8642 161.522 48.0687 163.466 52.3021 165.53C53.8325 166.276 56.8186 166.887 58.9368 166.887C61.2162 166.887 62.7888 167.325 62.7888 167.961C62.7888 168.551 63.0336 168.806 63.3334 168.526C63.6322 168.245 65.5125 168.763 67.5108 169.677C70.7878 171.175 71.1987 171.194 71.7088 169.87C72.1934 168.611 72.3762 168.652 72.9905 170.151C73.595 171.626 73.8496 171.687 74.6212 170.544C75.2561 169.604 75.5412 169.546 75.552 170.354C75.5608 171.059 76.646 171.442 78.2983 171.325C79.8001 171.218 81.5389 171.425 82.1621 171.785C82.7892 172.149 84.5309 171.363 86.0652 170.025L88.8361 167.609L89.1467 170.01C89.4868 172.629 91.718 173.26 92.6449 170.998C93.157 169.747 93.5187 169.766 95.7823 171.155C97.8071 172.398 98.504 172.479 99.1213 171.544C99.7474 170.595 99.9941 170.609 100.369 171.617C100.739 172.613 101.241 172.534 102.807 171.234C104.412 169.901 105.288 169.778 107.515 170.572C110.31 171.566 114.465 170.838 119.713 168.434C121.569 167.584 122.176 167.598 122.498 168.498C123.179 170.397 126.68 169.805 127.532 167.646L128.325 165.641L128.884 167.646C129.329 169.243 130.173 169.649 133.04 169.649C135.018 169.649 137.466 169.234 138.478 168.725C139.709 168.109 140.522 168.109 140.929 168.725C141.264 169.234 142.451 169.649 143.566 169.649C145.272 169.649 145.397 169.426 144.351 168.246C142.567 166.231 143.812 165.575 145.83 167.465C147.199 168.747 147.88 168.843 149.375 167.97C151.462 166.748 155.808 166.521 156.519 167.597C156.942 168.24 162.094 168.341 164.52 167.753C165.061 167.622 166.283 167.834 167.236 168.225C168.233 168.633 169.552 168.481 170.343 167.866C171.244 167.166 171.929 167.118 172.331 167.727C172.719 168.316 173.798 168.354 175.267 167.831C176.543 167.377 177.86 167.259 178.192 167.571C178.525 167.882 182.307 168.282 186.598 168.459C193.662 168.752 194.501 168.603 195.484 166.883C197.413 163.509 194.971 159.362 189.718 157.091C183.488 154.398 161.039 153.207 157.495 155.383C155.694 156.488 154.063 156.62 149.858 156.002C143.866 155.122 138.674 155.554 136.593 157.105C135.552 157.881 135.102 157.852 134.791 156.989C134.265 155.526 119.681 155.396 118.139 156.84C117.55 157.392 114.248 157.928 110.8 158.033C107.353 158.138 103.987 158.541 103.319 158.927C102.652 159.314 101.698 159.394 101.202 159.107C100.705 158.819 99.6304 159.209 98.8146 159.973C96.8173 161.844 94.5114 161.897 96.1617 160.033C97.123 158.949 96.9844 158.729 95.4069 158.841C94.2627 158.922 93.674 159.463 93.9639 160.17C94.5694 161.648 90.7193 161.806 89.7541 160.343C89.2764 159.619 88.8646 159.655 88.3289 160.466C87.748 161.346 87.0521 161.264 85.2838 160.104C82.4766 158.262 80.4813 158.171 80.4813 159.883C80.4813 160.588 79.8178 161.404 79.0069 161.696C78.1223 162.014 77.5326 161.701 77.5326 160.915C77.5326 159.532 75.2345 159.029 65.2461 158.224C58.2969 157.663 49.0035 154.837 45.4139 152.192C44.0122 151.159 42.0248 150.314 40.9976 150.314C38.4824 150.314 34.2843 147.65 34.2843 146.052C34.2843 144.107 32.3529 141.523 26.6667 135.865C23.8281 133.04 21.5064 130.167 21.5064 129.481C21.5064 128.795 20.6218 127.716 19.5406 127.083C18.0751 126.225 17.5748 124.936 17.5748 122.011C17.5748 119.855 17.1521 118.09 16.6361 118.09C16.1201 118.09 15.3986 116.536 15.033 114.637C14.6663 112.738 13.9675 110.46 13.479 109.573C12.8951 108.513 12.959 107.962 13.6667 107.962C14.2584 107.962 14.4639 107.541 14.1247 107.026C13.7847 106.512 13.1851 106.277 12.7909 106.505C12.3968 106.733 11.4326 106.539 10.6472 106.074C9.566 105.433 9.53454 105.225 10.5175 105.214C11.5367 105.203 11.6645 103.768 11.1131 98.5247C10.7278 94.8529 10.3513 90.3995 10.2766 88.6271C10.2029 86.8548 9.74488 84.8081 9.26129 84.0779C8.69316 83.2226 8.79145 82.6232 9.53749 82.3903C10.9529 81.9484 11.0925 77.5787 9.69082 77.5787C9.05881 77.5787 8.86517 75.2733 9.16889 71.364C10.0113 60.4859 8.08376 55.2811 4.61604 59.0744ZM0.865234 75.2769C0.865234 76.0365 1.30755 76.658 1.84815 76.658C2.38875 76.658 2.83106 76.0365 2.83106 75.2769C2.83106 74.5174 2.38875 73.8959 1.84815 73.8959C1.30755 73.8959 0.865234 74.5174 0.865234 75.2769ZM156.166 123.153C156.166 123.913 156.608 124.535 157.149 124.535C157.689 124.535 158.132 123.913 158.132 123.153C158.132 122.394 157.689 121.772 157.149 121.772C156.608 121.772 156.166 122.394 156.166 123.153ZM163.046 127.757C163.046 128.517 163.82 129.144 164.766 129.152C166.092 129.163 166.184 129.346 165.167 129.949C164.066 130.603 164.065 131.059 165.157 132.697C166.684 134.987 167.961 135.252 167.961 133.281C167.961 132.522 168.403 131.9 168.944 131.9C171.137 131.9 169.724 129.179 166.826 127.824C163.035 126.053 163.046 126.053 163.046 127.757ZM168.938 134.218C167.718 137.223 168.372 138.345 171.344 138.345C172.802 138.345 173.815 139.012 174.142 140.184C174.777 142.458 178.761 144.015 180.28 142.583C180.872 142.024 181.902 140.739 182.57 139.726C183.693 138.019 183.734 138.052 183.13 140.186C182.032 144.063 182.115 144.268 185.343 145.701C187.064 146.467 188.681 147.816 188.936 148.703C189.469 150.551 193.08 150.885 193.901 149.163C194.203 148.531 194.41 148.841 194.361 149.854C194.213 152.937 194.446 153.342 195.774 152.31C196.732 151.566 197.501 151.883 198.861 153.579C200.87 156.085 202.011 156.42 202.63 154.688C202.856 154.055 202.853 154.676 202.624 156.069C202.262 158.263 202.536 158.601 204.675 158.601C206.282 158.601 207.363 159.244 207.769 160.442C208.112 161.455 208.837 162.283 209.38 162.283C211.258 162.283 213.31 165.035 212.724 166.767C212.297 168.027 210.889 168.626 207.529 168.981C204.993 169.248 202.757 169.923 202.558 170.479C202.361 171.036 201.604 171.49 200.877 171.49C200.149 171.49 198.97 172.035 198.255 172.703C195.565 175.214 191.551 177.249 191.551 176.103C191.551 174.926 186.682 178.806 186.653 180.007C186.644 180.387 187.245 180.697 187.991 180.697C188.736 180.697 190.079 181.629 190.977 182.769C192.045 184.125 192.788 184.458 193.128 183.736C193.498 182.949 194.361 182.885 196.122 183.512C198.712 184.435 200.802 183.897 199.905 182.539C199.617 182.102 199.881 181.456 200.49 181.103C201.101 180.751 201.937 180.973 202.35 181.599C202.884 182.407 203.293 182.441 203.772 181.717C204.142 181.156 205.492 180.697 206.774 180.697C208.055 180.697 209.766 180.076 210.577 179.316C211.388 178.557 212.857 177.922 213.842 177.906C214.826 177.89 216.491 177.269 217.54 176.525C218.59 175.782 220.232 175.173 221.191 175.173C222.938 175.173 224.97 172.632 224.97 170.446C224.97 169.514 224.724 169.511 223.741 170.432C223.066 171.064 222.512 172.045 222.512 172.611C222.512 173.176 221.96 173.811 221.284 174.022C219.897 174.455 219.564 171.814 220.945 171.337C222.962 170.641 222.297 166.241 219.577 162.283C215.897 156.927 211.17 152.156 209.542 152.156C208.837 152.156 208.26 151.327 208.26 150.314C208.26 148.358 205.736 147.74 205.095 149.54C204.618 150.88 200.397 147.669 200.397 145.967C200.397 145.319 199.566 144.79 198.551 144.79C197.537 144.79 196.158 144.171 195.487 143.414C194.704 142.53 193.258 142.206 191.436 142.508C189.34 142.853 188.602 142.612 188.602 141.58C188.602 140.813 187.891 140.186 187.022 140.186C186.063 140.186 185.653 139.674 185.978 138.882C186.391 137.871 185.751 137.666 183.134 137.97C180.267 138.304 179.756 138.083 179.756 136.513C179.756 135.344 179.103 134.662 177.986 134.662C177.013 134.662 175.796 134.295 175.283 133.845C174.77 133.395 173.355 132.746 172.139 132.402C170.35 131.896 169.739 132.243 168.938 134.218ZM38.216 152.156C38.216 152.662 37.7471 153.076 37.1751 153.076C36.603 153.076 36.4074 152.662 36.7416 152.156C37.0758 151.649 37.5437 151.235 37.7825 151.235C38.0214 151.235 38.216 151.649 38.216 152.156ZM215.141 170.57C215.141 171.076 214.698 171.49 214.158 171.49C213.617 171.49 213.175 171.076 213.175 170.57C213.175 170.063 213.617 169.649 214.158 169.649C214.698 169.649 215.141 170.063 215.141 170.57ZM196.465 179.831C196.465 180.308 196.023 180.697 195.482 180.697C194.942 180.697 194.499 180.051 194.499 179.262C194.499 178.473 194.942 178.083 195.482 178.396C196.023 178.709 196.465 179.354 196.465 179.831ZM183.547 179.551C182.517 179.757 182.106 180.494 182.411 181.588C182.963 183.565 179.763 185.599 177.422 184.758C175.61 184.107 169.103 189.892 169.715 191.611C169.945 192.259 169.202 193.016 168.064 193.295C166.564 193.663 165.995 194.532 165.995 196.457C165.995 197.916 166.548 199.159 167.223 199.217C167.9 199.276 169.116 199.379 169.927 199.447C171.22 199.556 174.841 196.382 174.841 195.14C174.841 194.887 173.956 194.897 172.875 195.162C171.518 195.495 170.909 195.19 170.909 194.177C170.909 192.985 171.378 192.879 173.431 193.61C176.784 194.804 176.807 194.798 176.807 192.601C176.807 190.832 176.924 190.803 178.423 192.207C179.521 193.236 180.855 193.528 182.59 193.12C185.717 192.386 186.721 191.002 186.021 188.39C185.691 187.161 186.049 186.102 186.956 185.62C188.249 184.934 188.229 184.502 186.794 182.035C185.787 180.303 184.543 179.353 183.547 179.551ZM182.704 186.682C182.704 187.442 182.041 188.063 181.23 188.063C178.672 188.063 179.501 186.248 182.459 185.374C182.593 185.334 182.704 185.922 182.704 186.682Z" fill="white"/>
</svg>
