<svg width="300" height="334" viewBox="0 0 300 334" fill="none" xmlns="http://www.w3.org/2000/svg">
<g opacity="0.1">
<path d="M150 35.8926C222.299 35.8926 281 94.4184 281 166.501C281 238.585 222.299 297.11 150 297.11C77.7011 297.11 19 238.585 19 166.501C19 94.4184 77.7011 35.8926 150 35.8926Z" fill="#31DBF5"/>
</g>
<g opacity="0.2">
<path d="M150 51.8444C213.469 51.8444 265.001 103.222 265.001 166.501C265.001 229.781 213.469 281.159 150 281.159C86.5317 281.159 35 229.781 35 166.501C35 103.222 86.5317 51.8444 150 51.8444Z" fill="#31DBF5"/>
</g>
<path d="M150 73.7794C201.326 73.7794 242.999 115.328 242.999 166.501C242.999 217.675 201.326 259.224 150 259.224C98.6732 259.224 57 217.675 57 166.501C57 115.328 98.6732 73.7794 150 73.7794Z" fill="#31DBF5"/>
<path d="M101.378 178.274C112.632 187.278 135.14 205.285 135.14 205.285C135.14 205.285 176.536 159.255 197.234 136.24" stroke="white" stroke-width="24.1073" stroke-linecap="round" stroke-linejoin="round"/>
</svg>
