<svg width="285" height="285" viewBox="0 0 285 285" fill="none" xmlns="http://www.w3.org/2000/svg">
<path d="M252.751 127.127C244.831 131.223 243.739 130.95 234.727 120.3C230.221 114.974 223.121 108.42 218.888 105.689L211.378 100.774L216.293 96.1313C226.534 86.7098 217.386 80.7018 204.277 88.0752L196.904 92.1715C187.892 88.8944 172.189 83.023 162.495 81.3845C153.756 79.8825 154.302 80.019 154.302 79.8825C154.302 80.019 154.302 80.4287 154.848 70.0513C155.121 65.6819 151.844 61.9951 147.611 61.7221C138.736 61.0393 134.776 63.3606 136.551 72.3725L137.78 78.244C137.78 78.244 110.198 81.2479 103.644 82.0672C90.8084 83.7057 89.8532 83.4327 89.8532 78.244C89.8532 68.4128 64.1824 67.73 71.6923 82.0672C73.4674 85.4808 74.5596 88.4848 74.2865 88.8944C74.0134 89.1675 69.3711 91.6253 64.1824 94.2197C58.9937 96.814 50.5278 102.685 45.6121 107.055L36.464 115.111L27.3153 110.742C13.3877 104.187 9.70141 109.24 18.8499 122.621C23.629 129.721 23.6288 129.721 20.0787 134.91C11.0667 147.745 16.8012 160.717 42.1985 185.158C68.4151 210.419 126.174 231.037 137.917 219.295C141.057 216.154 132.728 205.64 127.13 205.64C87.8047 205.64 31.8213 168.5 37.5561 146.243C44.5199 119.207 100.503 83.9788 161.812 94.4928C196.631 100.364 217.659 117.159 233.771 151.705C236.639 157.85 239.233 163.448 239.642 163.994C242.919 169.729 199.089 191.166 162.768 201.68C150.479 205.231 148.977 206.186 148.977 210.283C148.977 225.03 181.338 221.889 204.277 204.957C231.04 185.295 263.948 173.552 254.253 152.115C252.205 147.472 251.385 143.785 252.477 143.376C259.305 140.918 269.546 133.545 270.228 130.677C271.594 124.26 262.172 122.075 252.751 127.127Z" fill="#909093"/>
<path d="M187.618 145.15C187.208 129.857 180.517 115.793 172.188 111.287C169.321 109.785 165.224 111.56 166.726 115.93C175.056 141.191 147.201 143.785 138.871 138.323C119.072 125.078 128.494 111.014 140.92 107.054C147.747 104.87 145.153 100.227 128.631 100.5C101.595 101.046 83.707 123.986 83.8435 144.058C83.9801 170.411 104.599 197.72 140.1 195.809C172.461 194.307 188.3 175.463 187.618 145.15Z" fill="#1B1B1D"/>
</svg>
