<svg width="48" height="48" viewBox="0 0 48 48" fill="none" xmlns="http://www.w3.org/2000/svg">
<rect width="48" height="48" rx="24" fill="#00325B"/>
<g clip-path="url(#clip0_776_1983)">
<path d="M23.9996 17.8999C25.1596 17.8999 26.0996 18.8399 26.0996 19.9999C26.0996 21.1599 25.1596 22.0999 23.9996 22.0999C22.8396 22.0999 21.8996 21.1599 21.8996 19.9999C21.8996 18.8399 22.8396 17.8999 23.9996 17.8999ZM23.9996 26.8999C26.9746 26.8999 30.0996 28.3549 30.0996 28.9999V30.0999H17.8996V28.9999C17.8996 28.3549 21.0246 26.8999 23.9996 26.8999ZM23.9996 15.9999C21.7896 15.9999 19.9996 17.7899 19.9996 19.9999C19.9996 22.2049 21.7896 23.9999 23.9996 23.9999C26.2096 23.9999 27.9996 22.2049 27.9996 19.9999C27.9996 17.7899 26.2096 15.9999 23.9996 15.9999ZM23.9996 24.9999C21.3346 24.9999 15.9996 26.3349 15.9996 28.9999V31.9999H31.9996V28.9999C31.9996 26.3349 26.6646 24.9999 23.9996 24.9999Z" fill="white"/>
</g>
<defs>
<clipPath id="clip0_776_1983">
<rect width="24" height="24" fill="white" transform="translate(12 12)"/>
</clipPath>
</defs>
</svg>
