<svg width="65" height="100" viewBox="0 0 38 64" fill="none" xmlns="http://www.w3.org/2000/svg">
<path fill-rule="evenodd" clip-rule="evenodd" d="M23 32C31.2843 32 38 24.8366 38 16V32H23ZM23 0H38V16C38 7.16344 31.2843 0 23 0Z" fill="#004880"/>
<path fill-rule="evenodd" clip-rule="evenodd" d="M20 32H38V48V64H20C29.9411 64 38 56.8366 38 48C38 39.1634 29.9411 32 20 32Z" fill="#004880"/>
<circle cx="22" cy="16" r="8" fill="#004880"/>
<circle cx="22" cy="48" r="8" fill="#004880"/>
<path d="M0.896 12C0.824 12 0.764 11.976 0.716 11.928C0.668 11.872 0.644 11.812 0.644 11.748C0.644 11.708 0.648 11.672 0.656 11.64L3.512 3.924C3.536 3.836 3.584 3.76 3.656 3.696C3.728 3.632 3.828 3.6 3.956 3.6H5.492C5.62 3.6 5.72 3.632 5.792 3.696C5.864 3.76 5.912 3.836 5.936 3.924L8.792 11.64C8.8 11.672 8.804 11.708 8.804 11.748C8.804 11.812 8.78 11.872 8.732 11.928C8.684 11.976 8.624 12 8.552 12H7.304C7.184 12 7.096 11.972 7.04 11.916C6.984 11.86 6.948 11.808 6.932 11.76L6.416 10.416H3.032L2.516 11.76C2.5 11.808 2.464 11.86 2.408 11.916C2.352 11.972 2.264 12 2.144 12H0.896ZM3.476 8.868H5.96L4.724 5.412L3.476 8.868Z" fill="#004880"/>
<path d="M1.688 28C1.6 28 1.528 27.972 1.472 27.916C1.416 27.86 1.388 27.788 1.388 27.7V19.9C1.388 19.812 1.416 19.74 1.472 19.684C1.528 19.628 1.6 19.6 1.688 19.6H2.78C2.9 19.6 2.988 19.628 3.044 19.684C3.1 19.74 3.136 19.784 3.152 19.816L6.356 24.82V19.9C6.356 19.812 6.384 19.74 6.44 19.684C6.496 19.628 6.564 19.6 6.644 19.6H7.868C7.956 19.6 8.028 19.628 8.084 19.684C8.14 19.74 8.168 19.812 8.168 19.9V27.7C8.168 27.78 8.14 27.852 8.084 27.916C8.028 27.972 7.956 28 7.868 28H6.764C6.644 28 6.556 27.972 6.5 27.916C6.452 27.852 6.416 27.808 6.392 27.784L3.2 22.936V27.7C3.2 27.788 3.172 27.86 3.116 27.916C3.06 27.972 2.988 28 2.9 28H1.688Z" fill="#004880"/>
<path d="M4.188 44C4.1 44 4.028 43.972 3.972 43.916C3.916 43.86 3.888 43.788 3.888 43.7V35.9C3.888 35.812 3.916 35.74 3.972 35.684C4.028 35.628 4.1 35.6 4.188 35.6H5.544C5.632 35.6 5.704 35.628 5.76 35.684C5.816 35.74 5.844 35.812 5.844 35.9V43.7C5.844 43.788 5.816 43.86 5.76 43.916C5.704 43.972 5.632 44 5.544 44H4.188Z" fill="#004880"/>
<path d="M1.188 60C1.108 60 1.036 59.972 0.972 59.916C0.916 59.86 0.888 59.788 0.888 59.7V51.9C0.888 51.812 0.916 51.74 0.972 51.684C1.036 51.628 1.108 51.6 1.188 51.6H2.304C2.424 51.6 2.512 51.632 2.568 51.696C2.632 51.76 2.676 51.808 2.7 51.84L4.908 55.908L7.14 51.84C7.156 51.808 7.192 51.76 7.248 51.696C7.312 51.632 7.404 51.6 7.524 51.6H8.64C8.728 51.6 8.8 51.628 8.856 51.684C8.912 51.74 8.94 51.812 8.94 51.9V59.7C8.94 59.788 8.912 59.86 8.856 59.916C8.8 59.972 8.728 60 8.64 60H7.416C7.336 60 7.268 59.972 7.212 59.916C7.156 59.86 7.128 59.788 7.128 59.7V54.852L5.604 57.708C5.564 57.78 5.512 57.844 5.448 57.9C5.384 57.956 5.3 57.984 5.196 57.984H4.632C4.528 57.984 4.444 57.956 4.38 57.9C4.316 57.844 4.264 57.78 4.224 57.708L2.7 54.852V59.7C2.7 59.788 2.672 59.86 2.616 59.916C2.56 59.972 2.492 60 2.412 60H1.188Z" fill="#004880"/>
</svg>
