<svg width="31" height="45" viewBox="0 0 31 45" fill="none" xmlns="http://www.w3.org/2000/svg">
<path fill-rule="evenodd" clip-rule="evenodd" d="M18.5039 22.0984C25.0173 22.0975 30.2972 17.1624 30.2972 11.0748C30.2972 4.99484 25.0305 0.0644826 18.5283 0.0512695H30.299V22.0985H18.5039V22.0984Z" fill="white"/>
<path fill-rule="evenodd" clip-rule="evenodd" d="M16.1447 22.0983H30.2988V33.1219V44.1455H16.1447C23.9618 44.1455 30.2988 39.21 30.2988 33.1219C30.2988 27.0337 23.9618 22.0983 16.1447 22.0983Z" fill="white"/>
<ellipse cx="17.7184" cy="11.0747" rx="6.2907" ry="5.5118" fill="white"/>
<ellipse cx="17.7184" cy="33.122" rx="6.2907" ry="5.5118" fill="white"/>
<rect width="7.86338" height="44.0944" transform="translate(0.417969 0.0512695)" fill="white"/>
<path d="M1.13361 7.09851C1.08197 7.09851 1.03894 7.0813 1.00452 7.04688C0.970093 7.00671 0.952881 6.96368 0.952881 6.91779C0.952881 6.8891 0.955749 6.86328 0.961487 6.84033L3.0097 1.30671C3.02691 1.2436 3.06134 1.1891 3.11297 1.1432C3.16461 1.0973 3.23632 1.07435 3.32812 1.07435H4.42968C4.52148 1.07435 4.59319 1.0973 4.64483 1.1432C4.69647 1.1891 4.73089 1.2436 4.7481 1.30671L6.79632 6.84033C6.80205 6.86328 6.80492 6.8891 6.80492 6.91779C6.80492 6.96368 6.78771 7.00671 6.75329 7.04688C6.71886 7.0813 6.67583 7.09851 6.6242 7.09851H5.72918C5.64312 7.09851 5.58001 7.07843 5.53985 7.03827C5.49969 6.99811 5.47387 6.96082 5.4624 6.92639L5.09234 5.96253H2.66546L2.29541 6.92639C2.28393 6.96082 2.25812 6.99811 2.21795 7.03827C2.17779 7.07843 2.11468 7.09851 2.02862 7.09851H1.13361ZM2.98388 4.85236H4.76531L3.8789 2.37385L2.98388 4.85236Z" fill="#004880"/>
<path d="M1.7016 19.0985C1.63849 19.0985 1.58685 19.0784 1.54669 19.0383C1.50653 18.9981 1.48645 18.9465 1.48645 18.8834V13.2895C1.48645 13.2264 1.50653 13.1748 1.54669 13.1346C1.58685 13.0944 1.63849 13.0743 1.7016 13.0743H2.48474C2.5708 13.0743 2.63391 13.0944 2.67407 13.1346C2.71423 13.1748 2.74005 13.2063 2.75152 13.2293L5.04931 16.8179V13.2895C5.04931 13.2264 5.06939 13.1748 5.10955 13.1346C5.14971 13.0944 5.19848 13.0743 5.25585 13.0743H6.13366C6.19677 13.0743 6.2484 13.0944 6.28857 13.1346C6.32873 13.1748 6.34881 13.2264 6.34881 13.2895V18.8834C6.34881 18.9407 6.32873 18.9924 6.28857 19.0383C6.2484 19.0784 6.19677 19.0985 6.13366 19.0985H5.34191C5.25585 19.0985 5.19274 19.0784 5.15258 19.0383C5.11816 18.9924 5.09234 18.9608 5.07513 18.9436L2.78595 15.4668V18.8834C2.78595 18.9465 2.76587 18.9981 2.72571 19.0383C2.68554 19.0784 2.63391 19.0985 2.5708 19.0985H1.7016Z" fill="#004880"/>
<path d="M3.7016 31.0985C3.63849 31.0985 3.58685 31.0784 3.54669 31.0383C3.50653 30.9981 3.48645 30.9465 3.48645 30.8834V25.2895C3.48645 25.2264 3.50653 25.1748 3.54669 25.1346C3.58685 25.0944 3.63849 25.0743 3.7016 25.0743H4.67407C4.73718 25.0743 4.78882 25.0944 4.82898 25.1346C4.86914 25.1748 4.88922 25.2264 4.88922 25.2895V30.8834C4.88922 30.9465 4.86914 30.9981 4.82898 31.0383C4.78882 31.0784 4.73718 31.0985 4.67407 31.0985H3.7016Z" fill="#004880"/>
<path d="M1.2016 43.0985C1.14422 43.0985 1.09259 43.0784 1.04669 43.0383C1.00653 42.9981 0.986449 42.9465 0.986449 42.8834V37.2895C0.986449 37.2264 1.00653 37.1748 1.04669 37.1346C1.09259 37.0944 1.14422 37.0743 1.2016 37.0743H2.00195C2.08801 37.0743 2.15112 37.0973 2.19128 37.1432C2.23718 37.1891 2.26873 37.2235 2.28595 37.2465L3.86944 40.1639L5.47015 37.2465C5.48162 37.2235 5.50744 37.1891 5.5476 37.1432C5.5935 37.0973 5.65948 37.0743 5.74554 37.0743H6.54589C6.609 37.0743 6.66063 37.0944 6.7008 37.1346C6.74096 37.1748 6.76104 37.2264 6.76104 37.2895V42.8834C6.76104 42.9465 6.74096 42.9981 6.7008 43.0383C6.66063 43.0784 6.609 43.0985 6.54589 43.0985H5.66808C5.61071 43.0985 5.56194 43.0784 5.52178 43.0383C5.48162 42.9981 5.46154 42.9465 5.46154 42.8834V39.4066L4.36859 41.4548C4.3399 41.5064 4.30261 41.5523 4.25671 41.5925C4.21081 41.6326 4.15057 41.6527 4.07598 41.6527H3.6715C3.59692 41.6527 3.53668 41.6326 3.49078 41.5925C3.44488 41.5523 3.40759 41.5064 3.3789 41.4548L2.28595 39.4066V42.8834C2.28595 42.9465 2.26587 42.9981 2.22571 43.0383C2.18554 43.0784 2.13678 43.0985 2.0794 43.0985H1.2016Z" fill="#004880"/>
</svg>
