<svg width="225" height="200" viewBox="0 0 336 220" fill="none" xmlns="http://www.w3.org/2000/svg">
<path fill-rule="evenodd" clip-rule="evenodd" d="M19.5759 0.645655C19.0726 1.69825 19.039 1.88117 19.0909 3.30071C19.131 4.38537 18.9489 4.40425 17.7553 3.44066C15.9096 1.95077 15.1766 2.22532 12.4269 5.43603C11.1444 6.9342 9.18249 8.7964 8.06781 9.57403C4.04136 12.3835 3.41235 13.1753 4.10966 14.5615C4.46096 15.2604 4.43489 15.7277 4.05079 15.599C3.04366 15.2615 2.46608 17.3155 3.02977 19.2318C3.45655 20.6851 3.36792 20.9289 2.26957 21.3222C0.962299 21.7899 0.0396782 23.4914 0.545844 24.4995C0.710263 24.8266 0.683014 25.8494 0.484933 26.7736C-0.00373696 29.0552 1.36501 33.0535 2.62146 33.0167C3.40033 32.9938 3.37799 33.3866 2.52362 34.7177C1.8411 35.781 1.67604 36.5361 2.0953 36.6766C2.47094 36.8025 2.47773 37.2457 2.11003 37.6623C1.74321 38.0785 1.68813 38.71 1.98844 39.0651C2.28809 39.42 2.34624 40.226 2.11693 40.8566C1.88762 41.4871 2.06713 42.3009 2.51646 42.666C2.96535 43.0302 3.23642 44.5884 3.11956 46.1287C2.97734 47.9999 3.35023 49.3363 4.24385 50.1566C4.97844 50.8318 5.59241 52.4431 5.6074 53.7374C5.62239 55.0317 6.03642 56.2248 6.52664 56.3891C7.38469 56.6766 9.09067 59.3641 8.60583 59.665C7.83355 60.1437 7.59712 62.3563 8.29307 62.5895C9.45319 62.9782 10.6013 66.0207 9.66353 66.2196C8.69222 66.4262 12.6736 74.5733 13.9548 75.0026C15.0772 75.3787 16.3653 77.992 15.9676 79.0856C15.5063 80.3542 18.1758 84.8185 19.3746 84.7834C19.9829 84.7657 20.3673 85.0621 20.2289 85.4427C20.0905 85.8232 20.4168 86.2817 20.9539 86.4617C21.491 86.6416 21.737 87.3207 21.5005 87.9712C21.2316 88.7105 21.6266 89.504 22.5555 90.0907C23.3723 90.6063 23.9054 91.3997 23.7404 91.8534C23.5754 92.3071 24.4805 93.4453 25.7523 94.3826C27.0243 95.3192 28.2528 96.57 28.4829 97.1624C28.7126 97.7539 29.3045 98.3736 29.7973 98.5387C30.2908 98.7041 30.541 99.2612 30.3535 99.7767C30.1074 100.453 30.7359 100.956 32.6167 101.587C34.049 102.067 35.1218 102.732 35.0006 103.065C34.8797 103.397 35.2789 103.655 35.8878 103.638C36.497 103.619 36.8885 103.899 36.7578 104.258C36.6271 104.617 37.1746 105.144 37.9749 105.43C38.7754 105.715 40.0856 106.177 40.8879 106.457C41.8751 106.801 42.2086 107.344 41.92 108.138C41.5891 109.048 42.1145 109.623 44.2701 110.713C45.8027 111.487 46.9231 112.455 46.7713 112.873C46.4111 113.863 54.4882 118.406 55.1493 117.584C55.8412 116.724 57.5103 117.484 57.1433 118.493C56.7849 119.479 57.9297 120.585 60.0396 121.292C60.8261 121.555 61.9074 122.349 62.4418 123.057C63.6123 124.604 70.9938 127.796 73.3114 127.757C74.5548 127.736 74.8814 127.959 74.6294 128.652C74.2294 129.751 74.5313 129.895 76.5897 129.585C77.8064 129.403 78.3298 129.671 78.976 130.808C79.4318 131.609 80.2409 132.246 80.7744 132.223C81.5046 132.191 81.5478 132.101 80.9492 131.859C80.5118 131.682 80.3068 131.115 80.4943 130.599C80.8763 129.549 82.0347 129.675 82.0184 130.766C82.0079 131.496 83.6354 132.65 86.8551 134.196C90.2807 135.84 101.158 139.482 102.068 139.289C102.562 139.184 102.856 139.401 102.722 139.77C102.431 140.57 106.36 141.753 107.815 141.304C108.375 141.131 109.237 141.318 109.731 141.719C111.043 142.785 114.005 142.885 114.372 141.876C114.546 141.397 114.981 141.104 115.339 141.224C115.698 141.344 115.848 141.834 115.674 142.312C115.209 143.591 116.328 144.226 120.517 145.062C122.577 145.473 124.547 146.037 124.897 146.316C125.246 146.595 126.172 146.526 126.955 146.163C127.738 145.8 128.646 145.82 128.972 146.206C129.328 146.627 129.489 146.578 129.375 146.084C129.271 145.63 129.548 145.183 129.99 145.088C130.433 144.995 130.686 145.216 130.554 145.579C130.285 146.318 133.647 147.642 134.633 147.185C135.721 146.681 146.254 148.276 146.902 149.043C147.242 149.445 147.922 149.762 148.412 149.748C148.903 149.733 149.555 150.928 149.862 152.402C150.211 154.076 150.917 155.248 151.744 155.526C152.472 155.77 152.921 156.374 152.741 156.87C152.31 158.053 153.36 159.261 154.229 158.584C155.159 157.861 159.657 162.382 158.883 163.26C158.143 164.099 159.378 165.111 161.323 165.261C162.342 165.339 163.076 165.968 163.587 167.202C164.403 169.172 166.362 169.623 166.959 167.979C167.252 167.174 167.425 167.196 167.92 168.1C168.251 168.707 168.253 169.508 167.924 169.882C167.587 170.264 167.839 170.781 168.499 171.061C170.609 171.96 170.911 172.144 171.555 172.915C171.905 173.334 172.517 173.607 172.916 173.523C173.315 173.438 174.289 173.892 175.08 174.531C176.029 175.296 176.736 175.523 177.155 175.196C177.564 174.878 178.048 175.111 178.512 175.849C178.97 176.58 181.371 177.748 185.116 179.061C189.857 180.724 191.228 180.98 192.175 180.379C193.249 179.696 193.318 179.727 192.973 180.733C192.513 182.077 194.313 182.815 195.305 181.69C196.245 180.624 197.866 181.199 197.911 182.615C197.951 183.861 201.08 184.482 202.347 183.496C202.842 183.111 203.33 183.419 203.949 184.508C204.657 185.753 205.606 186.262 208.596 187C210.663 187.509 212.586 187.819 212.87 187.687C213.155 187.555 213.775 187.844 214.249 188.328C214.758 188.848 216.569 189.313 218.67 189.465C220.627 189.606 223.762 190.221 225.636 190.832C228.548 191.781 229.038 191.77 229.006 190.757C228.977 189.856 229.196 189.757 229.918 190.344C231.268 191.439 247.229 194.269 253.009 194.437C254.398 194.477 256.383 194.795 257.42 195.142C258.457 195.49 259.808 195.442 260.422 195.035C261.149 194.554 262.6 194.635 264.584 195.268C266.603 195.912 267.861 195.975 268.319 195.456C268.698 195.026 269.361 194.959 269.79 195.308C270.22 195.657 272.384 196.251 274.599 196.626C276.815 197.002 279.412 197.476 280.369 197.679C281.327 197.882 282.586 197.946 283.168 197.823C283.75 197.7 284.876 197.704 285.671 197.834C290.452 198.611 291.645 198.671 291.837 198.141C291.955 197.816 292.266 197.804 292.527 198.113C292.789 198.423 293.29 198.451 293.643 198.177C293.994 197.903 295.73 198.164 297.499 198.757C300.032 199.606 300.794 199.619 301.084 198.821C301.386 197.991 301.579 198.007 302.147 198.912C302.714 199.816 302.907 199.836 303.204 199.019C303.49 198.232 303.971 198.251 305.485 199.108C307.105 200.026 307.398 200.012 307.366 199.02C307.341 198.254 307.661 197.956 308.284 198.165C308.81 198.341 309.087 198.908 308.899 199.423C308.64 200.138 309.678 200.192 313.241 199.651C317.449 199.013 317.94 198.769 318.088 197.243C318.178 196.31 318.47 193.933 318.737 191.961C319.411 186.966 318.381 186.313 304.786 183.121C304.324 183.012 303.86 183.157 303.755 183.444C303.651 183.73 302.998 183.774 302.302 183.541C301.607 183.308 300.793 183.309 300.494 183.542C300.194 183.776 299.239 183.572 298.371 183.09C297.504 182.608 296.04 182.32 295.118 182.449C293.365 182.695 288.247 182.198 283.881 181.358C282.474 181.087 281.194 181.216 281.038 181.645C280.855 182.149 279.647 182.087 277.633 181.469C271.482 179.582 270.524 179.497 269.329 180.73C268.15 181.947 267.001 182.087 267.409 180.963C267.69 180.19 262.345 178.332 261.217 178.81C260.425 179.146 256.838 178.753 247.732 177.333C244.58 176.841 243.312 176.926 243.042 177.646C242.775 178.359 242.608 178.373 242.443 177.693C242.27 176.984 241.219 176.585 238.168 176.069C235.943 175.693 233.868 175.568 233.556 175.792C233.244 176.015 231.211 175.683 229.038 175.054C226.865 174.424 224.723 173.986 224.279 174.081C223.392 174.27 213.587 172.818 212.311 172.308C210.47 171.573 208.366 170.948 204.747 170.06C202.636 169.542 200.845 168.84 200.766 168.501C200.688 168.162 199.172 167.562 197.398 167.169C192.671 166.121 191.04 165.554 189.603 164.459C188.625 163.715 188.23 163.715 187.959 164.459C187.763 164.998 187.31 165.34 186.952 165.22C186.594 165.1 186.445 164.607 186.62 164.124C186.849 163.496 186.192 163.036 184.312 162.508C182.867 162.103 181.414 161.896 181.084 162.048C180.754 162.201 180.174 161.578 179.795 160.663C179.246 159.339 178.617 158.93 176.702 158.651C175.238 158.438 174.224 157.978 174.107 157.474C174.002 157.018 173.226 156.414 172.381 156.131C171.538 155.848 170.852 155.277 170.858 154.862C170.864 154.446 169.483 153.641 167.789 153.073C165.432 152.283 164.654 151.711 164.479 150.636C164.299 149.538 164.576 149.161 165.746 148.907C166.57 148.728 167.287 148.071 167.339 147.448C167.391 146.824 168.068 146.087 168.843 145.809C170.056 145.375 170.306 145.479 170.65 146.564C171.012 147.704 171.262 147.792 173.31 147.502C174.553 147.325 176.106 146.933 176.761 146.63C177.414 146.327 178.464 146.251 179.092 146.462C179.72 146.672 181.177 146.372 182.331 145.794C183.485 145.217 184.831 144.879 185.322 145.044C185.814 145.209 187.151 144.868 188.293 144.287C189.435 143.706 190.702 143.342 191.109 143.478C192.182 143.837 192.261 143.104 191.301 141.714C190.523 140.587 190.543 140.527 191.581 140.854C192.816 141.244 197.555 139.314 197.585 138.41C197.596 138.096 197.842 138.119 198.131 138.462C198.675 139.106 199.065 138.751 200.806 136.036C201.615 134.773 201.588 134.368 200.674 134.053C199.968 133.81 199.867 133.573 200.409 133.439C201.521 133.163 203.99 128.513 204.353 126.01C204.504 124.971 204.101 122.977 203.458 121.578C202.815 120.178 202.336 118.902 202.394 118.742C202.452 118.582 202.199 117.853 201.832 117.121C201.464 116.39 201.494 115.318 201.899 114.74C202.304 114.162 202.348 113.593 201.998 113.476C201.648 113.358 201.05 112.643 200.669 111.885C200.215 110.982 199.803 110.723 199.473 111.133C198.691 112.105 197.462 111.4 196.928 109.674C196.617 108.666 195.697 107.859 194.348 107.407C193.195 107.02 192.173 106.363 192.076 105.945C191.98 105.527 191.608 105.087 191.25 104.967C190.892 104.847 190.658 105.005 190.73 105.318C190.802 105.631 190.164 105.699 189.312 105.467C188.316 105.196 187.978 104.803 188.364 104.365C188.702 103.981 188.369 103.3 187.6 102.802C186.85 102.317 186.063 102.132 185.85 102.391C185.638 102.65 183.692 102.11 181.526 101.192C178.816 100.043 176.494 99.5125 174.085 99.4926C170.052 99.46 165.959 99.9287 165.17 100.515C164.871 100.736 163.913 100.766 163.042 100.58C161.193 100.185 155.875 102.061 155.439 103.261C155.274 103.714 154.554 103.887 153.837 103.647C153.114 103.405 152.384 103.628 152.194 104.148C152.007 104.664 151.59 104.997 151.267 104.889C150.944 104.781 150.356 105.673 149.959 106.872C149.428 108.477 148.627 109.307 146.915 110.024C145.637 110.56 144.426 111.452 144.224 112.006C144.023 112.561 143.328 113.481 142.682 114.052C141.832 114.803 141.635 115.344 141.97 116.01C142.224 116.517 142.257 117.415 142.043 118.005C141.828 118.595 141.955 119.301 142.323 119.575C142.823 119.945 142.631 120.509 141.571 121.791C140.455 123.14 140.284 123.728 140.777 124.515C141.124 125.066 141.284 126.481 141.133 127.657C140.983 128.833 141.05 130.028 141.283 130.312C142.679 132.019 136.458 134.905 134.613 133.406C134.179 133.054 132.985 133.055 131.96 133.408C130.07 134.06 127.75 133.205 128.183 132.016C128.312 131.66 127.745 131.638 126.922 131.968C126.099 132.298 124.692 132.327 123.795 132.031C122.899 131.735 117.72 130.022 112.288 128.224C102.688 125.047 98.3076 124.272 98.6627 125.812C98.7619 126.244 98.4633 126.262 97.961 125.853C97.4796 125.462 97.2285 124.751 97.4026 124.272C97.5767 123.793 97.4354 123.306 97.0884 123.19C96.742 123.074 96.4734 123.457 96.4916 124.042C96.5344 125.372 95.0776 124.913 93.9136 123.23C93.3789 122.457 91.0532 121.267 87.7561 120.078C77.2748 116.303 75.8665 115.688 75.1789 114.593C74.3835 113.326 67.3875 110.631 63.9672 110.273C62.1377 110.082 61.7511 109.84 62.0347 109.06C62.2379 108.501 61.6814 107.672 60.7321 107.119C59.8207 106.588 58.4762 105.54 57.7447 104.79C57.0132 104.04 55.0934 102.768 53.4782 101.962C50.9695 100.71 50.486 100.65 50.1592 101.549C49.8449 102.413 49.6525 102.404 49.0829 101.496C48.7015 100.888 48.5432 99.9674 48.7314 99.45C49.0009 98.7089 48.5133 98.413 46.4348 98.0551C44.1527 97.6627 43.759 97.3695 43.5159 95.8831C43.3268 94.7261 42.282 93.5565 40.3177 92.3024C38.7135 91.279 37.4933 90.1859 37.6067 89.8741C37.7203 89.5616 37.0096 89.0318 36.0266 88.6961C34.9692 88.3341 33.8363 87.224 33.2499 85.9745C32.4916 84.3603 32.0628 84.0133 31.4239 84.4989C30.7991 84.9738 30.6867 84.8569 30.9764 84.0363C31.1901 83.4327 31.0714 82.8412 30.7133 82.7213C30.3553 82.6013 30.2271 82.0501 30.4284 81.4964C30.7257 80.679 30.3252 80.4207 28.3066 80.1271C26.0639 79.8012 25.9015 79.6591 26.659 78.6889C27.2369 77.9494 27.1795 77.3742 26.4775 76.8523C25.0861 75.8182 23.4795 73.8055 23.2142 72.7638C23.0935 72.2923 22.2405 71.2598 21.3183 70.4699C20.3961 69.6799 19.8575 68.8657 20.1213 68.6603C20.386 68.4546 19.8212 67.8447 18.8681 67.3045C17.6606 66.6202 17.1834 65.7956 17.2971 64.5893C17.3865 63.6364 17.0086 62.7057 16.4571 62.5209C15.9057 62.3361 15.7164 61.981 16.0372 61.7317C16.7932 61.143 16.4545 57.5537 15.6591 57.7225C15.325 57.7936 14.9693 56.8759 14.8684 55.6832C14.7676 54.4905 14.4644 53.4404 14.1936 53.3497C13.9227 53.2589 13.8548 52.7629 14.0423 52.2474C14.2298 51.7318 13.9887 51.1778 13.5063 51.0162C11.9067 50.4802 9.91687 45.5166 10.5755 43.7056C10.7073 43.3432 10.4957 42.0594 10.1056 40.8526C9.71576 39.6451 9.48273 38.2294 9.58792 37.7052C9.69288 37.1817 9.44642 35.6563 9.04043 34.3165C8.63531 32.9763 8.41499 31.5719 8.5518 31.1957C8.68884 30.8189 8.40297 29.7192 7.91692 28.7522C7.35459 27.6335 7.32075 25.9893 7.82302 24.2367C8.77028 20.9332 8.60617 19.8581 7.16209 19.9007C6.2172 19.9283 6.28262 19.7505 7.68677 18.4781C9.17621 17.1299 9.21099 16.96 8.17067 16.1354C6.5149 14.8241 7.27108 13.6445 9.11145 14.6671C10.4939 15.4346 10.5932 15.3866 10.0807 14.1969C9.59002 13.058 9.67994 12.8007 10.718 12.3724C11.4168 12.0836 11.8274 12.1476 11.6908 12.5231C11.561 12.88 11.9279 13.331 12.5073 13.5252C13.2274 13.7664 13.5941 13.461 13.6697 12.5581C13.734 11.7951 14.2129 11.2251 14.8064 11.2081C15.3703 11.1916 15.9706 10.7962 16.1402 10.33C16.3099 9.86319 17.3797 9.08453 18.5182 8.59881C20.742 7.64948 21.9412 4.89024 21.4462 1.86123C21.1659 0.14366 20.1357 -0.526122 19.5759 0.645655ZM10.661 17.5216C10.4275 18.2601 10.5279 18.4599 10.9167 18.0314C11.269 17.6433 11.4417 17.0961 11.301 16.8162C11.1603 16.5363 10.8726 16.8536 10.661 17.5216ZM185.116 117.049C187.125 118.152 189.082 119.551 189.464 120.157C189.845 120.764 190.724 121.657 191.415 122.142C193.474 123.587 193.675 124.92 192.074 126.503C191.3 127.269 190.265 127.763 189.775 127.602C189.217 127.418 188.842 127.8 188.774 128.622C188.695 129.564 188.433 129.748 187.848 129.272C187.335 128.855 186.719 129.058 186.186 129.819C185.72 130.485 184.934 130.893 184.439 130.727C183.944 130.561 183.436 130.706 183.311 131.05C183.186 131.394 182.644 131.528 182.107 131.348C181.57 131.168 181.048 131.248 180.947 131.526C180.846 131.804 178.905 132.179 176.634 132.359C174.363 132.54 172.437 132.867 172.353 133.086C172.27 133.305 171.366 133.412 170.345 133.324C169.324 133.236 167.982 133.398 167.362 133.685C166.742 133.972 164.336 134.146 162.015 134.07C159.694 133.995 157.539 134.121 157.225 134.351C155.682 135.481 153.351 134.246 152.26 131.72C151.646 130.297 151.266 128.791 151.418 128.374C151.57 127.957 151.313 127.307 150.848 126.929C150.383 126.552 150.156 125.821 150.343 125.305C150.565 124.695 150.241 124.357 149.417 124.336C148.709 124.319 149.455 123.744 151.109 123.033C153.754 121.897 154.063 121.556 154.017 119.831C153.976 118.217 154.136 117.97 154.99 118.324C155.553 118.558 156.207 118.34 156.443 117.841C156.679 117.341 157.033 116.593 157.231 116.177C157.428 115.761 157.964 115.546 158.422 115.699C159.967 116.217 162.289 114.352 162.856 112.139C163.156 110.967 163.299 110.682 163.174 111.508C162.911 113.237 165.525 114.536 166.664 113.242C167.043 112.812 168.466 112.622 169.825 112.82C171.185 113.017 172.509 113.015 172.766 112.815C173.505 112.24 181.095 114.843 185.116 117.049ZM271.373 154.73C270.223 156.407 272.025 159.699 273.754 159.082C274.531 158.805 274.979 158.972 275.33 159.67C275.6 160.207 276.722 160.948 277.824 161.318C278.926 161.687 280.267 162.564 280.804 163.265C281.341 163.968 282.534 164.955 283.455 165.459C284.793 166.192 285.216 166.142 285.554 165.212C286.104 163.7 287.432 164.15 287.293 165.802C287.213 166.762 287.978 167.448 290.384 168.575C292.31 169.476 293.837 169.871 294.226 169.569C294.629 169.255 295.051 169.531 295.352 170.305C295.683 171.158 296.696 171.754 298.607 172.22C300.134 172.593 302.383 173.641 303.607 174.55C304.83 175.459 306.256 176.191 306.776 176.175C307.296 176.16 307.806 176.513 307.909 176.959C308.225 178.329 309.945 178.473 310.42 177.169C310.99 175.602 312.254 176.558 312.436 178.695C312.624 180.883 316.765 183.457 318.379 182.389C319.238 181.821 319.625 181.878 320 182.626C320.272 183.166 320.354 183.993 320.182 184.465C319.977 185.03 320.504 185.46 321.731 185.728C323.043 186.014 323.441 186.372 323.078 186.941C322.334 188.108 323.581 189.329 325.796 189.605C327.549 189.823 327.649 189.992 326.958 191.573C326.542 192.524 325.941 193.53 325.622 193.809C325.303 194.088 324.664 195.244 324.203 196.379C323.741 197.513 322.928 198.534 322.395 198.647C321.862 198.76 321.201 199.219 320.927 199.667C319.093 202.664 318.082 203.551 316.939 203.168C315.936 202.832 315.664 203.082 315.535 204.459C315.437 205.495 314.388 207.278 312.863 208.997C311.483 210.554 310.17 212.239 309.947 212.743C309.725 213.247 308.95 214.765 308.226 216.116C306.638 219.082 307.122 219.844 310.345 219.448C313.288 219.088 315.251 217.21 313.901 216.045C313.167 215.412 313.251 215.342 314.352 215.671C315.96 216.151 320.346 214.889 321.079 213.735C321.362 213.288 322.577 211.98 323.779 210.827C324.98 209.676 326.2 208.083 326.489 207.288C326.778 206.493 327.222 205.95 327.476 206.081C328.716 206.72 329.649 206.634 329.932 205.855C330.104 205.382 330.836 204.783 331.558 204.524C332.412 204.219 332.926 203.481 333.026 202.417C333.124 201.37 333.37 201.007 333.711 201.409C334.003 201.755 334.35 201.74 334.482 201.376C334.614 201.012 334.439 200.619 334.092 200.503C333.746 200.387 333.787 199.923 334.183 199.473C334.581 199.023 334.695 198.115 334.439 197.455C334.116 196.623 334.197 196.332 334.705 196.502C335.107 196.637 335.589 196.325 335.776 195.809C335.964 195.294 335.678 194.725 335.141 194.545C334.599 194.363 334.366 193.663 334.617 192.972C335.203 191.361 334.799 186.018 334.072 185.774C333.766 185.671 333.141 186.12 332.686 186.771C332.072 187.649 331.798 187.698 331.628 186.961C331.495 186.382 331.797 185.877 332.351 185.753C333.079 185.589 333.112 185.471 332.494 185.256C332.048 185.101 331.837 184.552 332.024 184.036C332.247 183.424 331.726 182.885 330.525 182.482C329.399 182.105 328.309 181.052 327.713 179.767C327.179 178.612 326.31 177.68 325.783 177.696C325.256 177.711 324.924 177.451 325.045 177.119C325.166 176.786 324.853 176.375 324.35 176.207C323.774 176.014 323.394 176.376 323.327 177.183C323.239 178.229 322.773 178.369 320.79 177.944C319.454 177.658 318.422 177.271 318.496 177.084C318.774 176.383 320.125 175.69 321.175 175.711C321.945 175.727 321.786 175.249 320.632 174.073C319.653 173.076 318.574 172.504 317.933 172.641C317.345 172.765 316.48 172.555 316.01 172.174C315.389 171.67 315.167 171.804 315.194 172.666C315.24 174.121 314.615 173.938 313.36 172.13C312.838 171.377 311.108 169.861 309.518 168.76C307.221 167.172 306.46 166.885 305.823 167.368C305.293 167.77 305.104 167.735 305.268 167.266C305.797 165.748 302.523 164.843 300.128 165.847L297.782 166.83L297.948 165.195L298.115 163.56L297.043 165.104C296.246 166.253 295.728 166.45 295.019 165.874C294.422 165.389 294.392 165.105 294.939 165.113C295.418 165.119 295.915 164.837 296.043 164.485C296.171 164.133 295.83 163.859 295.286 163.874C294.742 163.89 293.974 163.514 293.581 163.038C293.062 162.409 293.355 162.334 294.661 162.764C295.647 163.088 296.557 163.073 296.682 162.729C297.004 161.844 291.526 160.128 290.256 160.716C289.437 161.096 289.264 161.033 289.483 160.433C289.69 159.863 289.372 159.72 288.269 159.886C286.063 160.218 283.578 159.195 283.538 157.939C283.51 157.047 282.451 156.519 277.891 155.125C272.63 153.517 272.221 153.492 271.373 154.73ZM277.137 157.985C277.527 157.903 278.02 158.285 278.234 158.834C278.535 159.609 277.996 159.568 275.827 158.65C272.72 157.335 272.61 157.06 274.811 156.091C276.239 155.463 276.336 155.506 276.381 156.779C276.407 157.525 276.748 158.069 277.137 157.985ZM281.026 159.586C280.901 159.93 280.489 160.107 280.11 159.98C279.731 159.853 279.703 159.529 280.05 159.259C280.396 158.99 280.808 158.812 280.966 158.865C281.125 158.918 281.151 159.243 281.026 159.586ZM285.583 161.114C285.458 161.457 285.063 161.64 284.705 161.52C284.347 161.4 284.156 161.021 284.281 160.677C284.406 160.334 284.802 160.15 285.16 160.27C285.518 160.39 285.708 160.77 285.583 161.114ZM289.34 164.651C289.746 165.837 289.663 165.986 288.758 165.683C288.109 165.465 287.892 164.807 288.195 163.975C288.465 163.23 288.727 162.766 288.777 162.943C288.826 163.121 289.08 163.888 289.34 164.651ZM310.775 171.658C310.727 172.318 310.598 172.375 310.413 171.817C310.255 171.34 309.751 170.624 309.292 170.227C308.707 169.719 308.815 169.672 309.655 170.068C310.313 170.378 310.816 171.093 310.775 171.658ZM330.478 203.674C330.142 204.043 330.122 203.642 330.434 202.783C330.747 201.923 331.022 201.622 331.046 202.111C331.071 202.602 330.815 203.305 330.478 203.674ZM308.73 196.58C308.346 197.015 307.836 197.14 307.597 196.856C307.358 196.574 307.476 195.986 307.86 195.551C308.244 195.115 308.754 194.991 308.992 195.274C309.231 195.557 309.113 196.144 308.73 196.58ZM313.509 204.823C313.384 205.167 313.575 205.546 313.933 205.666C314.291 205.786 314.686 205.603 314.811 205.259C314.936 204.916 314.745 204.536 314.387 204.416C314.029 204.296 313.634 204.479 313.509 204.823ZM202.473 171.53C202.524 173.114 202.438 173.213 201.342 172.846C200.8 172.664 200.568 171.963 200.82 171.269C201.362 169.779 202.423 169.946 202.473 171.53ZM228.442 189.069C228.053 189.498 227.953 189.298 228.186 188.559C228.398 187.891 228.686 187.574 228.826 187.854C228.967 188.134 228.794 188.681 228.442 189.069Z" fill="white"/>
</svg>
