<svg width="336" height="276" viewBox="0 0 336 276" fill="none" xmlns="http://www.w3.org/2000/svg">
<g opacity="0.05">
<path d="M280.632 77.3138C277.755 72.3406 271.384 70.6367 266.402 73.5078L213.269 104.124C217.118 100.511 217.65 94.5935 214.504 90.3557C211.358 86.1175 205.532 84.9021 200.949 87.5272L199.951 88.1096C200.529 87.5709 201.168 87.0989 201.852 86.7017L228.919 71.1038C233.505 68.4609 235.373 62.8053 233.265 57.9571C231.157 53.1093 225.74 50.6117 220.676 52.1517L235.639 43.5286C240.624 40.6572 242.332 34.2955 239.456 29.3199C236.579 24.3442 230.207 22.6382 225.221 25.5097L53.8115 124.297C48.8286 127.168 47.1213 133.529 49.9979 138.503C52.8746 143.477 59.2463 145.182 64.2293 142.31L82.2746 131.911C87.2575 129.04 93.6293 130.744 96.5059 135.718C99.3826 140.692 97.6749 147.052 92.6916 149.923L56.6031 170.721C53.3534 172.566 51.343 176.007 51.3349 179.738C51.3265 183.469 53.3219 186.92 56.5632 188.779C59.8049 190.636 63.7963 190.619 67.0212 188.732L84.0683 178.907C80.1987 182.516 79.6566 188.447 82.8083 192.694C85.9597 196.942 91.8019 198.155 96.3883 195.511L59.3933 217.141C56.1432 218.985 54.1325 222.427 54.1241 226.157C54.116 229.889 56.1114 233.339 59.3531 235.198C62.5948 237.056 66.5858 237.039 69.8111 235.151L122.94 204.53C119.075 208.139 118.536 214.067 121.686 218.313C124.836 222.557 130.675 223.771 135.26 221.131L261.566 148.341C266.376 145.557 268.148 139.493 265.591 134.564C263.035 129.635 257.051 127.58 251.996 129.894C255.968 126.336 256.605 120.358 253.47 116.046C250.336 111.735 244.444 110.486 239.825 113.152L276.817 91.5226C279.212 90.144 280.958 87.8724 281.673 85.2074C282.39 82.5424 282.015 79.7028 280.632 77.3138Z" fill="#00DDB3"/>
</g>
<path d="M282.698 41.132L289.84 49.5414L281.42 56.6824L274.269 48.273L282.698 41.132ZM287.784 49.3739L282.529 43.1893L276.335 48.4413L281.589 54.6254L287.784 49.3739Z" fill="#00DDB3"/>
<path d="M31.8173 164.46L40.2378 171.601L33.0957 180.01L24.6669 172.87L31.8173 164.46ZM38.1823 171.769L31.9864 166.517L26.7329 172.702L32.9266 177.953L38.1823 171.769Z" fill="#00DDB3"/>
<path d="M242.636 175.85L249.31 181.508L243.648 188.171L236.972 182.513L242.636 175.85ZM247.254 181.675L242.804 177.903L239.027 182.345L243.479 186.118L247.254 181.675Z" fill="#00DDB3"/>
<path d="M115.163 254.266C112.927 254.266 111.115 252.457 111.115 250.225C111.115 247.994 112.927 246.185 115.163 246.185C117.399 246.185 119.211 247.994 119.211 250.225C119.208 252.456 117.398 254.263 115.163 254.266ZM115.163 247.252C113.518 247.252 112.184 248.583 112.184 250.225C112.184 251.868 113.518 253.199 115.163 253.199C116.808 253.199 118.142 251.868 118.142 250.225C118.14 248.584 116.808 247.254 115.163 247.252Z" fill="#00DDB3"/>
<path d="M160.584 30.0453C158.132 30.0433 156.146 28.0585 156.147 25.6114C156.149 23.1642 158.137 21.1814 160.589 21.182C163.04 21.1826 165.027 23.1665 165.027 25.6136C165.024 28.0614 163.036 30.0444 160.584 30.0453ZM160.584 22.3526C158.78 22.3543 157.319 23.8154 157.32 25.6159C157.321 27.4163 158.785 28.8752 160.589 28.8746C162.392 28.8741 163.854 27.4144 163.854 25.6136C163.852 23.8123 162.389 22.3526 160.584 22.3526Z" fill="#00DDB3"/>
<path d="M305.805 140.929C302.184 140.928 299.249 137.998 299.249 134.384C299.249 130.77 302.184 127.84 305.805 127.84C309.426 127.84 312.361 130.77 312.361 134.384C312.357 137.997 309.424 140.924 305.805 140.929ZM305.805 129.569C303.141 129.569 300.981 131.725 300.981 134.384C300.981 137.044 303.141 139.2 305.805 139.2C308.469 139.2 310.629 137.044 310.629 134.384C310.627 131.726 308.468 129.572 305.805 129.569Z" fill="#00DDB3"/>
<path d="M190.585 220.191L202.452 221.158L195.675 230.938L190.585 220.191ZM199.808 222.404L192.976 221.847L195.905 228.035L199.808 222.404Z" fill="#A1ADB7"/>
<path d="M73.278 71.785L85.1456 72.7518L78.3683 82.5322L73.278 71.785ZM82.5012 73.9978L75.669 73.4412L78.5986 79.6284L82.5012 73.9978Z" fill="#A1ADB7"/>
<path d="M109.749 127.72L149.778 169.955L226.215 103.941" stroke="url(#paint0_linear_1494_4986)" stroke-width="21"/>
<defs>
<linearGradient id="paint0_linear_1494_4986" x1="226.782" y1="137.647" x2="96.582" y2="137.647" gradientUnits="userSpaceOnUse">
<stop stop-color="#00DDB3"/>
<stop offset="0.5" stop-color="#2E03E5"/>
<stop offset="1" stop-color="#2E03E5"/>
</linearGradient>
</defs>
</svg>
