<svg width="240" height="124" viewBox="0 0 240 124" fill="none" xmlns="http://www.w3.org/2000/svg">
<path d="M206.202 112.355V38.1227C206.202 23.5002 194.348 11.646 179.726 11.646H60.2755C45.6525 11.646 33.7988 23.5002 33.7988 38.1227V112.355" stroke="black" stroke-width="10.1616" stroke-linecap="round" stroke-linejoin="round"/>
<path d="M175.033 52.1458L132.214 91.5943C125.312 97.9526 114.687 97.9526 107.785 91.5937L64.9697 52.1458" stroke="black" stroke-width="10.1616" stroke-linecap="round" stroke-linejoin="round"/>
<path d="M200.569 0.702148C211.279 0.702148 219.962 9.38537 219.962 20.096C219.962 30.8067 211.279 39.4893 200.569 39.4893C189.857 39.4893 181.175 30.8067 181.175 20.096C181.175 9.38537 189.857 0.702148 200.569 0.702148Z" fill="#0E72FB"/>
<path d="M5.64355 118.333H234.357" stroke="black" stroke-width="10.1616" stroke-linecap="round" stroke-linejoin="round"/>
</svg>
