<svg width="38" height="50" viewBox="0 0 38 64" fill="none" xmlns="http://www.w3.org/2000/svg">
<path fill-rule="evenodd" clip-rule="evenodd" d="M23.0001 31.9999C31.2833 31.9986 37.9977 24.8357 37.9977 15.9999C37.9977 7.17425 31.2985 0.0175649 23.0284 -3.05176e-05H38V32H23.0001L23.0001 31.9999Z" fill="white"/>
<path fill-rule="evenodd" clip-rule="evenodd" d="M19.9999 31.9998H37.9998V47.9997V63.9997H19.9999C29.941 63.9997 37.9998 56.8363 37.9998 47.9997C37.9998 39.1632 29.941 31.9998 19.9999 31.9998Z" fill="white"/>
<ellipse cx="22.0012" cy="15.9997" rx="7.99995" ry="8" fill="white"/>
<ellipse cx="22.0012" cy="47.9999" rx="7.99995" ry="8" fill="white"/>
<path d="M1.78397 17C1.73233 17 1.6893 16.9828 1.65488 16.9483C1.62045 16.9082 1.60324 16.8652 1.60324 16.8193C1.60324 16.7906 1.60611 16.7648 1.61185 16.7418L3.66006 11.2082C3.67727 11.1451 3.7117 11.0906 3.76333 11.0447C3.81497 10.9988 3.88668 10.9758 3.97848 10.9758H5.08004C5.17184 10.9758 5.24356 10.9988 5.29519 11.0447C5.34683 11.0906 5.38125 11.1451 5.39846 11.2082L7.44668 16.7418C7.45241 16.7648 7.45528 16.7906 7.45528 16.8193C7.45528 16.8652 7.43807 16.9082 7.40365 16.9483C7.36922 16.9828 7.32619 17 7.27456 17H6.37954C6.29348 17 6.23037 16.9799 6.19021 16.9397C6.15005 16.8996 6.12423 16.8623 6.11276 16.8279L5.7427 15.864H3.31582L2.94577 16.8279C2.93429 16.8623 2.90848 16.8996 2.86831 16.9397C2.82815 16.9799 2.76504 17 2.67898 17H1.78397ZM3.63424 14.7538H5.41567L4.52926 12.2753L3.63424 14.7538Z" fill="white"/>
<path d="M2.35196 29C2.28885 29 2.23721 28.9799 2.19705 28.9397C2.15689 28.8996 2.13681 28.8479 2.13681 28.7848V23.191C2.13681 23.1279 2.15689 23.0762 2.19705 23.0361C2.23721 22.9959 2.28885 22.9758 2.35196 22.9758H3.1351C3.22116 22.9758 3.28427 22.9959 3.32443 23.0361C3.36459 23.0762 3.39041 23.1078 3.40188 23.1307L5.69967 26.7194V23.191C5.69967 23.1279 5.71975 23.0762 5.75991 23.0361C5.80007 22.9959 5.84884 22.9758 5.90621 22.9758H6.78402C6.84713 22.9758 6.89876 22.9959 6.93893 23.0361C6.97909 23.0762 6.99917 23.1279 6.99917 23.191V28.7848C6.99917 28.8422 6.97909 28.8938 6.93893 28.9397C6.89876 28.9799 6.84713 29 6.78402 29H5.99227C5.90621 29 5.8431 28.9799 5.80294 28.9397C5.76852 28.8938 5.7427 28.8623 5.72549 28.8451L3.43631 25.3683V28.7848C3.43631 28.8479 3.41623 28.8996 3.37607 28.9397C3.3359 28.9799 3.28427 29 3.22116 29H2.35196Z" fill="white"/>
<path d="M4.35196 41C4.28885 41 4.23721 40.9799 4.19705 40.9397C4.15689 40.8996 4.13681 40.8479 4.13681 40.7848V35.191C4.13681 35.1279 4.15689 35.0762 4.19705 35.0361C4.23721 34.9959 4.28885 34.9758 4.35196 34.9758H5.32443C5.38754 34.9758 5.43918 34.9959 5.47934 35.0361C5.5195 35.0762 5.53958 35.1279 5.53958 35.191V40.7848C5.53958 40.8479 5.5195 40.8996 5.47934 40.9397C5.43918 40.9799 5.38754 41 5.32443 41H4.35196Z" fill="white"/>
<path d="M1.85196 53C1.79458 53 1.74295 52.9799 1.69705 52.9397C1.65689 52.8996 1.63681 52.8479 1.63681 52.7848V47.191C1.63681 47.1279 1.65689 47.0762 1.69705 47.0361C1.74295 46.9959 1.79458 46.9758 1.85196 46.9758H2.65231C2.73837 46.9758 2.80148 46.9988 2.84164 47.0447C2.88754 47.0906 2.9191 47.125 2.93631 47.1479L4.5198 50.0654L6.12051 47.1479C6.13198 47.125 6.1578 47.0906 6.19796 47.0447C6.24386 46.9988 6.30984 46.9758 6.3959 46.9758H7.19625C7.25936 46.9758 7.31099 46.9959 7.35116 47.0361C7.39132 47.0762 7.4114 47.1279 7.4114 47.191V52.7848C7.4114 52.8479 7.39132 52.8996 7.35116 52.9397C7.31099 52.9799 7.25936 53 7.19625 53H6.31844C6.26107 53 6.2123 52.9799 6.17214 52.9397C6.13198 52.8996 6.1119 52.8479 6.1119 52.7848V49.308L5.01895 51.3562C4.99026 51.4079 4.95297 51.4538 4.90707 51.4939C4.86117 51.5341 4.80093 51.5542 4.72634 51.5542H4.32186C4.24728 51.5542 4.18704 51.5341 4.14114 51.4939C4.09524 51.4538 4.05795 51.4079 4.02926 51.3562L2.93631 49.308V52.7848C2.93631 52.8479 2.91623 52.8996 2.87607 52.9397C2.8359 52.9799 2.78714 53 2.72976 53H1.85196Z" fill="white"/>
</svg>
