<svg width="275" height="243" viewBox="0 0 275 243" fill="none" xmlns="http://www.w3.org/2000/svg">
<path d="M206.264 94.6521L206.243 184.403C206.243 185.726 206.006 186.999 205.583 188.173C204.045 192.451 199.939 195.507 195.139 195.507L39.2628 195.474C34.4394 195.474 30.3295 192.377 28.8126 188.073C28.3971 186.912 28.1792 185.667 28.1727 184.366L28.1933 94.6529C28.1943 92.0553 29.0844 90.489 30.5736 88.5995C32.3371 86.3611 93.904 87.8546 110.687 87.1431C113.232 87.0351 116.162 87.0333 118.717 87.1401C135.55 87.841 201.821 85.3981 203.59 87.4588C205.249 89.3915 206.254 91.9025 206.264 94.6521ZM206.264 94.6521L206.243 184.403C206.243 185.726 206.006 186.999 205.583 188.173C204.045 192.451 199.939 195.507 195.139 195.507L39.2628 195.474C34.4394 195.474 30.3295 192.377 28.8126 188.073C28.3971 186.912 28.1792 185.667 28.1727 184.366L28.1933 94.6529C28.1943 92.0553 29.0844 90.489 30.5736 88.5995C32.3371 86.3611 93.904 87.8546 110.687 87.1431C113.232 87.0351 116.162 87.0333 118.717 87.1401C135.55 87.841 201.821 85.3981 203.59 87.4588C205.249 89.3915 206.254 91.9025 206.264 94.6521Z" fill="black" fill-opacity="0.2"/>
<path d="M209.202 92.2641L209.182 182.015C209.181 183.337 208.944 184.611 208.522 185.785C206.984 190.063 202.877 193.119 198.077 193.119L42.2012 193.086C37.3778 193.086 33.2679 189.989 31.7509 185.685C31.3355 184.524 31.1175 183.279 31.1111 181.978L31.1317 92.2648C31.1327 89.6672 32.0228 88.1009 33.512 86.2114C35.2755 83.973 99.1375 37.4245 115.921 25.2072C118.465 23.3548 121.396 23.342 123.952 25.1689C140.784 37.2066 204.76 83.01 206.528 85.0707C208.187 87.0034 209.192 89.5145 209.202 92.2641ZM209.202 92.2641L209.182 182.015C209.181 183.337 208.944 184.611 208.522 185.785C206.984 190.063 202.877 193.119 198.077 193.119L42.2012 193.086C37.3778 193.086 33.2679 189.989 31.7509 185.685C31.3355 184.524 31.1175 183.279 31.1111 181.978L31.1317 92.2648C31.1327 89.6672 32.0228 88.1009 33.512 86.2114C35.2755 83.973 99.1375 37.4245 115.921 25.2072C118.465 23.3548 121.396 23.342 123.952 25.1689C140.784 37.2066 204.76 83.01 206.528 85.0707C208.187 87.0034 209.192 89.5145 209.202 92.2641Z" fill="#6100B4"/>
<path d="M201.398 51.1248L201.456 142.36C201.458 146.578 198.04 149.999 193.821 150.002L47.3731 150.202C43.1547 150.205 39.7321 146.787 39.7293 142.569L39.6715 51.3346C39.6687 47.1162 43.0878 43.6941 47.3062 43.6913L193.756 43.4914C197.974 43.4886 201.395 46.9064 201.398 51.1248ZM201.398 51.1248L201.456 142.36C201.458 146.578 198.04 149.999 193.821 150.002L47.3731 150.202C43.1547 150.205 39.7321 146.787 39.7293 142.569L39.6715 51.3346C39.6687 47.1162 43.0878 43.6941 47.3062 43.6913L193.756 43.4914C197.974 43.4886 201.395 46.9064 201.398 51.1248Z" fill="#ECF2FB"/>
<path d="M62.7256 58.0016L115.006 58.0804M62.7265 75.1837L174.383 75.1719L62.7265 75.1837ZM62.7265 75.1837L174.383 75.1719L62.7265 75.1837ZM62.7256 58.0016L115.006 58.0804L62.7256 58.0016ZM62.7256 58.0016L115.006 58.0804L62.7256 58.0016ZM63.7565 126.938L175.404 126.921L63.7565 126.938ZM63.7475 109.757L116.035 109.836L63.7475 109.757ZM63.4148 109.687L175.063 109.671L63.4148 109.687ZM63.4057 92.5063L115.694 92.5852L63.4057 92.5063ZM63.073 92.4369L174.721 92.4202L63.073 92.4369ZM63.064 75.2557L115.352 75.3346L63.064 75.2557ZM62.7265 75.1837L174.383 75.1719L62.7265 75.1837Z" stroke="#BFCEE2" stroke-width="5.45619" stroke-linecap="round" stroke-linejoin="round"/>
<path d="M209.203 93.0846L209.183 182.015C209.183 183.338 208.946 184.611 208.523 185.785C206.985 190.063 202.879 193.119 198.079 193.119L42.2028 193.086C37.3794 193.086 33.2695 189.989 31.7525 185.685C31.3371 184.524 31.1192 183.279 31.1127 181.978L31.1336 93.0856C31.137 86.9468 36.1117 84.9485 42.2262 88.7068L119.273 137.275L198.102 88.7399C203.911 85.2769 209.18 86.958 209.203 93.0846ZM209.203 93.0846L209.183 182.015C209.183 183.338 208.946 184.611 208.523 185.785C206.985 190.063 202.879 193.119 198.079 193.119L42.2028 193.086C37.3794 193.086 33.2695 189.989 31.7525 185.685C31.3371 184.524 31.1192 183.279 31.1127 181.978L31.1336 93.0856C31.137 86.9468 36.1117 84.9485 42.2262 88.7068L119.273 137.275L198.102 88.7399C203.911 85.2769 209.18 86.958 209.203 93.0846ZM208.524 185.593C206.986 189.983 202.879 193.119 198.079 193.119L42.2032 193.085C37.3797 193.085 33.2689 189.906 31.7525 185.491L113.491 130.708C113.491 130.708 117.267 128.251 120.361 128.287C123.456 128.322 126.744 130.869 126.744 130.869L208.524 185.593ZM208.524 185.593C206.986 189.983 202.879 193.119 198.079 193.119L42.2032 193.085C37.3797 193.085 33.2689 189.906 31.7525 185.491L113.491 130.708C113.491 130.708 117.267 128.251 120.361 128.287C123.456 128.322 126.744 130.869 126.744 130.869L208.524 185.593ZM208.523 185.785C206.985 190.063 202.879 193.119 198.079 193.119L42.2028 193.086C37.3794 193.086 33.2695 189.989 31.7525 185.685L113.491 132.298C113.491 132.298 117.267 129.904 120.361 129.938C123.456 129.973 126.745 132.455 126.745 132.455L208.523 185.785ZM208.523 185.785C206.985 190.063 202.879 193.119 198.079 193.119L42.2028 193.086C37.3794 193.086 33.2695 189.989 31.7525 185.685L113.491 132.298C113.491 132.298 117.267 129.904 120.361 129.938C123.456 129.973 126.745 132.455 126.745 132.455L208.523 185.785ZM37.0192 84.886C37.0175 84.8878 37.0108 84.8948 37.006 84.8991C37.006 84.8991 37.005 84.9022 37.0058 84.9036C37.0062 84.906 37.0058 84.907 37.0058 84.907L37.0334 84.9065C37.0334 84.9065 37.0345 84.9068 37.0344 84.9033C37.0347 84.9023 37.0343 84.8999 37.0343 84.8999C37.0301 84.8951 37.0223 84.887 37.0203 84.8864L37.0192 84.886ZM37.0192 84.886C37.0175 84.8878 37.0108 84.8948 37.006 84.8991C37.006 84.8991 37.005 84.9022 37.0058 84.9036C37.0062 84.906 37.0058 84.907 37.0058 84.907L37.0334 84.9065C37.0334 84.9065 37.0345 84.9068 37.0344 84.9033C37.0347 84.9023 37.0343 84.8999 37.0343 84.8999C37.0301 84.8951 37.0223 84.887 37.0203 84.8864L37.0192 84.886Z" fill="#B05EF8"/>
<path d="M208.525 185.593C206.987 189.983 202.88 193.119 198.079 193.119L42.204 193.085C37.3806 193.085 33.2697 189.907 31.7533 185.491L113.492 130.708C113.492 130.708 117.268 128.251 120.362 128.287C123.456 128.322 126.745 130.869 126.745 130.869L208.525 185.593ZM208.525 185.593C206.987 189.983 202.88 193.119 198.079 193.119L42.204 193.085C37.3806 193.085 33.2697 189.907 31.7533 185.491L113.492 130.708C113.492 130.708 117.268 128.251 120.362 128.287C123.456 128.322 126.745 130.869 126.745 130.869L208.525 185.593ZM208.524 185.785C206.986 190.063 202.88 193.119 198.079 193.119L42.2037 193.086C37.3803 193.086 33.2703 189.989 31.7534 185.685L113.492 132.298C113.492 132.298 117.267 129.904 120.362 129.938C123.457 129.973 126.746 132.455 126.746 132.455L208.524 185.785ZM208.524 185.785C206.986 190.063 202.88 193.119 198.079 193.119L42.2037 193.086C37.3803 193.086 33.2703 189.989 31.7534 185.685L113.492 132.298C113.492 132.298 117.267 129.904 120.362 129.938C123.457 129.973 126.746 132.455 126.746 132.455L208.524 185.785ZM37.02 84.8861C37.0184 84.8879 37.0116 84.8949 37.0069 84.8992C37.0069 84.8992 37.0059 84.9023 37.0066 84.9037C37.007 84.9061 37.0067 84.9071 37.0067 84.9071L37.0343 84.9066C37.0343 84.9066 37.0353 84.9069 37.0352 84.9034C37.0356 84.9024 37.0352 84.9 37.0352 84.9C37.0309 84.8952 37.0232 84.8871 37.0211 84.8865L37.02 84.8861ZM37.02 84.8861C37.0184 84.8879 37.0116 84.8949 37.0069 84.8992C37.0069 84.8992 37.0059 84.9023 37.0066 84.9037C37.007 84.9061 37.0067 84.9071 37.0067 84.9071L37.0343 84.9066C37.0343 84.9066 37.0353 84.9069 37.0352 84.9034C37.0356 84.9024 37.0352 84.9 37.0352 84.9C37.0309 84.8952 37.0232 84.8871 37.0211 84.8865L37.02 84.8861Z" fill="#202020" fill-opacity="0.3"/>
<path d="M208.524 185.785C206.986 190.063 202.88 193.119 198.079 193.119L42.2037 193.086C37.3803 193.086 33.2703 189.989 31.7534 185.685L113.492 132.298C113.492 132.298 117.267 129.904 120.362 129.938C123.457 129.973 126.746 132.455 126.746 132.455L208.524 185.785ZM208.524 185.785C206.986 190.063 202.88 193.119 198.079 193.119L42.2037 193.086C37.3803 193.086 33.2703 189.989 31.7534 185.685L113.492 132.298C113.492 132.298 117.267 129.904 120.362 129.938C123.457 129.973 126.746 132.455 126.746 132.455L208.524 185.785ZM37.02 84.8861C37.0184 84.8879 37.0116 84.8949 37.0069 84.8992C37.0069 84.8992 37.0059 84.9023 37.0066 84.9037C37.007 84.9061 37.0067 84.9071 37.0067 84.9071L37.0343 84.9066C37.0343 84.9066 37.0353 84.9069 37.0352 84.9034C37.0356 84.9024 37.0352 84.9 37.0352 84.9C37.0309 84.8952 37.0232 84.8871 37.0211 84.8865L37.02 84.8861ZM37.02 84.8861C37.0184 84.8879 37.0116 84.8949 37.0069 84.8992C37.0069 84.8992 37.0059 84.9023 37.0066 84.9037C37.007 84.9061 37.0067 84.9071 37.0067 84.9071L37.0343 84.9066C37.0343 84.9066 37.0353 84.9069 37.0352 84.9034C37.0356 84.9024 37.0352 84.9 37.0352 84.9C37.0309 84.8952 37.0232 84.8871 37.0211 84.8865L37.02 84.8861Z" fill="#9013FE"/>
<path d="M62.024 103.96C69.4826 105.861 73.9943 113.461 72.0927 120.92C70.1911 128.378 62.5914 132.89 55.1328 130.988C47.6743 129.087 43.1625 121.487 45.0642 114.028C46.9658 106.57 54.5655 102.058 62.024 103.96Z" fill="black" fill-opacity="0.18"/>
<path d="M63.4752 101.834C70.9337 103.736 75.4455 111.335 73.5439 118.794C71.6422 126.252 64.0425 130.764 56.584 128.863C49.1255 126.961 44.6137 119.361 46.5153 111.903C48.417 104.444 56.0167 99.9324 63.4752 101.834ZM61.9855 123.634C60.6976 123.94 59.0849 123.862 57.6371 123.493C53.4068 122.414 51.0565 118.943 52.2654 114.201C53.648 108.778 58.3211 106.342 62.6651 107.449C67.0657 108.571 68.7192 112.046 67.7782 115.737C66.9457 119.002 65.0102 120.188 63.801 119.833C63.0134 119.602 63.0101 118.785 63.7211 117.182L65.9119 112.147C65.3034 111.569 63.9635 110.895 62.7144 110.576C58.626 109.534 55.2671 112.034 54.384 115.497C53.7904 117.825 54.7775 119.528 56.623 119.999C58.1277 120.383 59.5934 119.97 60.8428 118.747L60.8995 118.761C60.6579 120.302 61.4494 121.229 62.784 121.57C65.8501 122.351 68.8441 120.333 69.901 116.188C71.117 111.418 68.4157 107.071 63.4189 105.797C57.0024 104.161 51.5192 108.115 50.0425 113.907C48.6237 119.471 51.9076 123.907 56.6203 125.108C58.6361 125.622 60.1777 125.743 62.0766 125.411L61.9855 123.634ZM61.454 115.637C60.7786 117.218 59.3313 118.271 58.2809 118.003C57.3442 117.764 57.035 116.959 57.3101 115.88C57.8675 113.694 59.8144 112.225 61.6882 112.703C62.0571 112.797 62.3266 112.926 62.5391 113.041L61.454 115.637Z" fill="#E1EAF5"/>
<path d="M61.9858 123.634C60.698 123.941 59.0853 123.862 57.6374 123.493C53.4072 122.415 51.0569 118.943 52.2657 114.201C53.6483 108.779 58.3214 106.342 62.6654 107.449C67.0661 108.571 68.7195 112.047 67.7785 115.738C66.946 119.003 65.0106 120.188 63.8013 119.834C63.0137 119.603 63.0104 118.785 63.7214 117.183L65.9123 112.147C65.3037 111.569 63.9638 110.895 62.7147 110.576C58.6263 109.534 55.2674 112.034 54.3843 115.497C53.7907 117.826 54.7779 119.529 56.6233 119.999C58.1281 120.383 59.5937 119.97 60.8431 118.747L60.8998 118.761C60.6582 120.302 61.4497 121.23 62.7843 121.57C65.8504 122.352 68.8445 120.333 69.9013 116.188C71.1174 111.418 68.416 107.071 63.4192 105.797C57.0027 104.161 51.5195 108.115 50.0428 113.907C48.624 119.472 51.9079 123.907 56.6206 125.109C58.6365 125.623 60.178 125.743 62.0769 125.411L61.9858 123.634ZM61.4543 115.637C60.7789 117.219 59.3316 118.271 58.2812 118.003C57.3445 117.764 57.0354 116.96 57.3105 115.881C57.8678 113.695 59.8147 112.225 61.6886 112.703C62.0574 112.797 62.3269 112.926 62.5394 113.041L61.4543 115.637Z" fill="#B05EF8"/>
<path d="M203.949 150.293V174.772C203.949 176.257 202.743 177.462 201.259 177.462H134.68C133.196 177.462 131.99 176.257 131.99 174.772V150.293C131.99 148.808 133.196 147.603 134.68 147.603H201.259C202.743 147.603 203.949 148.808 203.949 150.293ZM203.949 150.293V174.772C203.949 176.257 202.743 177.462 201.259 177.462H134.68C133.196 177.462 131.99 176.257 131.99 174.772V150.293C131.99 148.808 133.196 147.603 134.68 147.603H201.259C202.743 147.603 203.949 148.808 203.949 150.293ZM205.563 148.679V173.158C205.563 174.643 204.357 175.848 202.873 175.848H136.294C134.81 175.848 133.604 174.643 133.604 173.158V148.679C133.604 147.194 134.81 145.989 136.294 145.989H202.873C204.357 145.989 205.563 147.194 205.563 148.679ZM205.563 148.679V173.158C205.563 174.643 204.357 175.848 202.873 175.848H136.294C134.81 175.848 133.604 174.643 133.604 173.158V148.679C133.604 147.194 134.81 145.989 136.294 145.989H202.873C204.357 145.989 205.563 147.194 205.563 148.679ZM149.677 148.343C156.618 148.343 162.253 153.978 162.253 160.919C162.253 167.859 156.618 173.495 149.677 173.495C142.737 173.495 137.101 167.859 137.101 160.919C137.101 153.978 142.737 148.343 149.677 148.343ZM149.677 148.343C156.618 148.343 162.253 153.978 162.253 160.919C162.253 167.859 156.618 173.495 149.677 173.495C142.737 173.495 137.101 167.859 137.101 160.919C137.101 153.978 142.737 148.343 149.677 148.343ZM149.677 152.311C152.537 152.311 154.856 154.629 154.856 157.489C154.856 159.847 153.279 162.889 151.123 163.883C150.9 163.987 157.478 164.584 157.765 168.252C156.47 170.031 153.275 171.746 149.677 171.746C145.81 171.746 142.582 169.56 141.338 168.168C141.506 164.483 148.274 163.916 147.991 163.763C145.959 162.661 144.499 159.759 144.499 157.489C144.499 154.629 146.817 152.311 149.677 152.311ZM149.677 152.311C152.537 152.311 154.856 154.629 154.856 157.489C154.856 159.847 153.279 162.889 151.123 163.883C150.9 163.987 157.478 164.584 157.765 168.252C156.47 170.031 153.275 171.746 149.677 171.746C145.81 171.746 142.582 169.56 141.338 168.168C141.506 164.483 148.274 163.916 147.991 163.763C145.959 162.661 144.499 159.759 144.499 157.489C144.499 154.629 146.817 152.311 149.677 152.311Z" fill="black" fill-opacity="0.17"/>
<path d="M205.562 148.679V173.158C205.562 174.643 204.357 175.848 202.872 175.848H136.294C134.809 175.848 133.604 174.643 133.604 173.158V148.679C133.604 147.194 134.809 145.989 136.294 145.989H202.872C204.357 145.989 205.562 147.194 205.562 148.679ZM205.562 148.679V173.158C205.562 174.643 204.357 175.848 202.872 175.848H136.294C134.809 175.848 133.604 174.643 133.604 173.158V148.679C133.604 147.194 134.809 145.989 136.294 145.989H202.872C204.357 145.989 205.562 147.194 205.562 148.679ZM149.676 148.343C156.617 148.343 162.252 153.978 162.252 160.919C162.252 167.859 156.617 173.495 149.676 173.495C142.736 173.495 137.101 167.859 137.101 160.919C137.101 153.978 142.736 148.343 149.676 148.343ZM149.676 148.343C156.617 148.343 162.252 153.978 162.252 160.919C162.252 167.859 156.617 173.495 149.676 173.495C142.736 173.495 137.101 167.859 137.101 160.919C137.101 153.978 142.736 148.343 149.676 148.343ZM149.676 152.311C152.536 152.311 154.855 154.629 154.855 157.489C154.855 159.847 153.279 162.889 151.122 163.883C150.899 163.987 157.478 164.584 157.764 168.252C156.469 170.031 153.274 171.746 149.676 171.746C145.809 171.746 142.582 169.56 141.337 168.168C141.506 164.483 148.273 163.916 147.99 163.763C145.958 162.661 144.498 159.759 144.498 157.489C144.498 154.629 146.817 152.311 149.676 152.311ZM149.676 152.311C152.536 152.311 154.855 154.629 154.855 157.489C154.855 159.847 153.279 162.889 151.122 163.883C150.899 163.987 157.478 164.584 157.764 168.252C156.469 170.031 153.274 171.746 149.676 171.746C145.809 171.746 142.582 169.56 141.337 168.168C141.506 164.483 148.273 163.916 147.99 163.763C145.958 162.661 144.498 159.759 144.498 157.489C144.498 154.629 146.817 152.311 149.676 152.311Z" fill="white"/>
<path d="M149.677 148.343C156.618 148.343 162.253 153.978 162.253 160.919C162.253 167.859 156.618 173.495 149.677 173.495C142.737 173.495 137.102 167.859 137.102 160.919C137.102 153.978 142.737 148.343 149.677 148.343ZM149.677 148.343C156.618 148.343 162.253 153.978 162.253 160.919C162.253 167.859 156.618 173.495 149.677 173.495C142.737 173.495 137.102 167.859 137.102 160.919C137.102 153.978 142.737 148.343 149.677 148.343ZM149.677 152.311C152.537 152.311 154.856 154.629 154.856 157.489C154.856 159.847 153.28 162.889 151.123 163.883C150.9 163.987 157.479 164.584 157.765 168.251C156.47 170.031 153.275 171.746 149.677 171.746C145.81 171.746 142.583 169.56 141.338 168.168C141.507 164.483 148.274 163.916 147.991 163.763C145.959 162.661 144.499 159.758 144.499 157.489C144.499 154.629 146.818 152.311 149.677 152.311ZM149.677 152.311C152.537 152.311 154.856 154.629 154.856 157.489C154.856 159.847 153.28 162.889 151.123 163.883C150.9 163.987 157.479 164.584 157.765 168.251C156.47 170.031 153.275 171.746 149.677 171.746C145.81 171.746 142.583 169.56 141.338 168.168C141.507 164.483 148.274 163.916 147.991 163.763C145.959 162.661 144.499 159.758 144.499 157.489C144.499 154.629 146.818 152.311 149.677 152.311Z" fill="#DFE5F3"/>
<path d="M149.678 152.311C152.537 152.311 154.856 154.629 154.856 157.489C154.856 159.847 153.28 162.889 151.123 163.883C150.9 163.987 157.479 164.584 157.765 168.251C156.47 170.031 153.275 171.746 149.678 171.746C145.81 171.746 142.583 169.56 141.338 168.168C141.507 164.483 148.274 163.916 147.991 163.763C145.959 162.661 144.499 159.758 144.499 157.489C144.499 154.629 146.818 152.311 149.678 152.311ZM149.678 152.311C152.537 152.311 154.856 154.629 154.856 157.489C154.856 159.847 153.28 162.889 151.123 163.883C150.9 163.987 157.479 164.584 157.765 168.251C156.47 170.031 153.275 171.746 149.678 171.746C145.81 171.746 142.583 169.56 141.338 168.168C141.507 164.483 148.274 163.916 147.991 163.763C145.959 162.661 144.499 159.758 144.499 157.489C144.499 154.629 146.818 152.311 149.678 152.311Z" fill="white"/>
<path d="M167.498 157.959H199.913M167.498 157.959H199.913H167.498ZM167.498 157.959H199.913H167.498ZM167.498 169.258H199.913H167.498ZM167.498 163.609H199.913H167.498Z" stroke="#DEE4F3" stroke-width="2.69004" stroke-linecap="round" stroke-linejoin="round"/>
<path d="M167.498 152.176H183.1M167.498 152.176H183.1H167.498Z" stroke="#9013FE" stroke-width="2.69004" stroke-linecap="round" stroke-linejoin="round"/>
<path d="M253.522 73.3996L236.822 76.2115L247.859 79.3571L255.903 84.6588L252.446 75.5084L253.522 73.3996ZM236.822 76.2115L252.051 75.5448L268.529 65.2519L236.822 76.2115ZM249.161 77.9075L236.822 76.2115L233.326 91.2124L249.161 77.9075Z" fill="black" fill-opacity="0.2"/>
<path d="M254.032 71.4477L237.332 74.2596L248.369 77.4052L256.413 82.7069L252.956 73.5565L254.032 71.4477ZM237.332 74.2596L252.56 73.5929L269.039 63.3L237.332 74.2596ZM249.67 75.9556L237.332 74.2596L233.836 89.2605L249.67 75.9556Z" fill="#A6BDDB"/>
<path d="M237.332 74.2596L252.56 73.5929L269.039 63.3L237.332 74.2596ZM249.67 75.9556L237.332 74.2596L233.836 89.2605L249.67 75.9556Z" fill="#D3DFED"/>
</svg>
