<svg width="18" height="18" viewBox="0 0 18 18" fill="none" xmlns="http://www.w3.org/2000/svg">
<path d="M8.99955 2.39159C10.2562 2.39159 11.2746 3.40992 11.2746 4.66659C11.2746 5.92325 10.2562 6.94159 8.99955 6.94159C7.74289 6.94159 6.72455 5.92325 6.72455 4.66659C6.72455 3.40992 7.74289 2.39159 8.99955 2.39159ZM8.99955 12.1416C12.2225 12.1416 15.6079 13.7178 15.6079 14.4166V15.6083H2.39122V14.4166C2.39122 13.7178 5.77664 12.1416 8.99955 12.1416ZM8.99955 0.333252C6.60539 0.333252 4.66622 2.27242 4.66622 4.66659C4.66622 7.05534 6.60539 8.99992 8.99955 8.99992C11.3937 8.99992 13.3329 7.05534 13.3329 4.66659C13.3329 2.27242 11.3937 0.333252 8.99955 0.333252ZM8.99955 10.0833C6.11247 10.0833 0.332886 11.5295 0.332886 14.4166V17.6666H17.6662V14.4166C17.6662 11.5295 11.8866 10.0833 8.99955 10.0833Z" fill="white"/>
</svg>
